<svg id="Symbol" xmlns="http://www.w3.org/2000/svg" xmlns:xlink="http://www.w3.org/1999/xlink" viewBox="0 0 48 48"><defs><style>.cls-1,.cls-5{fill-rule:evenodd;}.cls-1{fill:url(#Ny_övertoningsruta_3);}.cls-2{fill:url(#Namnlös_övertoning_4);}.cls-3{fill:url(#Namnlös_övertoning_3);}.cls-4{fill:#faaf5a;}.cls-5{fill:url(#Namnlös_övertoning_9);}.cls-6{fill:#dc8730;}.cls-7{fill:#8d4428;}.cls-8{fill:#9f5024;}.cls-9{fill:#ad5725;}.cls-10{fill:#e48e33;}.cls-11{fill:#db7b29;}.cls-12{fill:#ffb560;}.cls-13{fill:#bc6327;}.cls-14{fill:#ffcb80;}.cls-15{fill:#ffd68e;}.cls-16{fill:#d57c3f;}.cls-17{fill:#ffcd85;}.cls-18{fill:#efa952;}.cls-19{fill:#fdac4a;}.cls-20{fill:#eb962a;}.cls-21{fill:#ffc378;}.cls-22{fill:#ffce89;}.cls-23{fill:#ffd79d;}.cls-24{fill:#eeaf67;}.cls-25{fill:#bf6b29;}.cls-26{fill:#fcb664;}.cls-27{fill:#994822;}.cls-28{fill:#d47429;}.cls-29{fill:#e7944b;}.cls-30{fill:#964c25;}.cls-31{fill:#823d1e;}.cls-32{fill:#6c2b13;}.cls-33{fill:#ba6019;}.cls-34{fill:#d89050;}.cls-35{fill:#7e3717;}.cls-36{fill:#94441e;}.cls-37{fill:#dd8732;}.cls-38{fill:#ffc278;}.cls-39{fill:#ea913e;}.cls-40{fill:#c57231;}.cls-41{fill:#642813;}.cls-42{fill:#56220c;}.cls-43{fill:#f49e4d;}.cls-44{fill:#76310a;}.cls-45{fill:#994b17;}.cls-46{fill:#a35622;}.cls-47{fill:#af6638;}.cls-48{fill:#a5572a;}.cls-49{fill:#e69646;}.cls-50{fill:#d27c3c;}.cls-51{fill:#7a2c13;}.cls-52{fill:#c27138;}.cls-53{fill:#9a4921;}.cls-54{fill:#96441e;}.cls-55{fill:#a04e14;}.cls-56{fill:#aa5a28;}.cls-57{fill:#944428;}.cls-58{fill:#ffc283;}.cls-59{fill:#aa5e33;}.cls-60{fill:#e5872b;}.cls-61{fill:#b96534;}.cls-62{fill:#f29b40;}.cls-63{fill:#b46027;}.cls-64{fill:url(#Ny_övertoningsruta_3-2);}.cls-65{fill:url(#Ny_övertoningsruta_3-3);}.cls-66{fill:url(#Ny_övertoningsruta_3-4);}.cls-67{fill:url(#Ny_övertoningsruta_3-5);}.cls-68{fill:url(#Ny_övertoningsruta_3-6);}.cls-69{fill:url(#Ny_övertoningsruta_3-7);}.cls-70{fill:url(#Ny_övertoningsruta_3-8);}.cls-71{fill:url(#Ny_övertoningsruta_3-9);}.cls-72{fill:url(#Ny_övertoningsruta_3-10);}.cls-73{fill:url(#Ny_övertoningsruta_3-11);}.cls-74{fill:url(#Ny_övertoningsruta_3-12);}.cls-75{fill:url(#Ny_övertoningsruta_3-13);}.cls-76{fill:url(#Ny_övertoningsruta_3-14);}.cls-77{fill:url(#Ny_övertoningsruta_3-15);}.cls-78{fill:url(#Ny_övertoningsruta_3-16);}.cls-79{fill:url(#Ny_övertoningsruta_3-17);}.cls-80{fill:url(#Ny_övertoningsruta_3-18);}.cls-81{fill:url(#Ny_övertoningsruta_3-19);}.cls-82{fill:url(#Ny_övertoningsruta_3-20);}.cls-83{fill:url(#Ny_övertoningsruta_3-21);}.cls-84{fill:url(#Ny_övertoningsruta_3-22);}.cls-85{fill:url(#Ny_övertoningsruta_3-23);}.cls-86{fill:url(#Ny_övertoningsruta_3-24);}.cls-87{fill:url(#Ny_övertoningsruta_3-25);}.cls-88{fill:url(#Ny_övertoningsruta_3-26);}.cls-89{fill:url(#Ny_övertoningsruta_3-27);}.cls-90{fill:url(#Ny_övertoningsruta_3-28);}.cls-91{fill:url(#Ny_övertoningsruta_3-29);}.cls-92{fill:url(#Ny_övertoningsruta_3-30);}.cls-93{fill:url(#Ny_övertoningsruta_3-31);}.cls-94{fill:url(#Ny_övertoningsruta_3-32);}.cls-95{fill:url(#Ny_övertoningsruta_3-33);}.cls-96{fill:url(#Ny_övertoningsruta_3-34);}.cls-97{fill:url(#Ny_övertoningsruta_3-35);}.cls-98{fill:url(#Ny_övertoningsruta_3-36);}.cls-99{fill:url(#Ny_övertoningsruta_3-37);}.cls-100{fill:url(#Ny_övertoningsruta_3-38);}.cls-101{fill:url(#Ny_övertoningsruta_3-39);}.cls-102{fill:#f8a943;}.cls-103{fill:#ec9c4b;}.cls-104{fill:none;}</style><radialGradient id="Ny_övertoningsruta_3" cx="30.23" cy="10.24" r="32.92" gradientTransform="translate(-1.67 2.89)" gradientUnits="userSpaceOnUse"><stop offset="0" stop-color="#ffe178"/><stop offset="0.18" stop-color="#ffd05f"/><stop offset="0.4" stop-color="#ffbe46"/><stop offset="0.6" stop-color="#ff9b0f"/><stop offset="0.8" stop-color="#f7780f"/><stop offset="0.9" stop-color="#f3640f"/><stop offset="1" stop-color="#e65f19"/></radialGradient><linearGradient id="Namnlös_övertoning_4" x1="37.01" y1="4.83" x2="11.06" y2="43.07" gradientUnits="userSpaceOnUse"><stop offset="0.02" stop-color="#ffe6a5"/><stop offset="0.11" stop-color="#fcc677"/><stop offset="0.29" stop-color="#f5871e"/><stop offset="0.29" stop-color="#f5871e"/><stop offset="0.56" stop-color="#e1690f"/><stop offset="0.63" stop-color="#cc5c0e"/><stop offset="0.8" stop-color="#9c3d0c"/><stop offset="0.93" stop-color="#7e2a0b"/><stop offset="1" stop-color="#73230a"/></linearGradient><linearGradient id="Namnlös_övertoning_3" x1="12.04" y1="41.77" x2="35.87" y2="6.37" gradientUnits="userSpaceOnUse"><stop offset="0.01" stop-color="#ffe6a0"/><stop offset="0.11" stop-color="#fcc877"/><stop offset="0.33" stop-color="#f5871e"/><stop offset="0.33" stop-color="#f5871e"/><stop offset="0.64" stop-color="#e1690f"/><stop offset="0.65" stop-color="#db650f"/><stop offset="0.76" stop-color="#ae490d"/><stop offset="0.86" stop-color="#8e340b"/><stop offset="0.94" stop-color="#7a280a"/><stop offset="0.99" stop-color="#73230a"/></linearGradient><radialGradient id="Namnlös_övertoning_9" cx="28.77" cy="11.04" r="36.96" gradientUnits="userSpaceOnUse"><stop offset="0" stop-color="#ffc85a"/><stop offset="0.27" stop-color="#f59619"/><stop offset="0.44" stop-color="#e56b16"/><stop offset="0.55" stop-color="#dc5014"/><stop offset="0.79" stop-color="#ba3f18"/><stop offset="0.82" stop-color="#b43c19"/></radialGradient><radialGradient id="Ny_övertoningsruta_3-2" cx="26.52" cy="11.58" r="35.7" gradientTransform="matrix(1, 0, 0, 1, 0, 0)" xlink:href="#Ny_övertoningsruta_3"/><radialGradient id="Ny_övertoningsruta_3-3" cx="26.46" cy="11.55" r="35.81" gradientTransform="matrix(1, 0, 0, 1, 0, 0)" xlink:href="#Ny_övertoningsruta_3"/><radialGradient id="Ny_övertoningsruta_3-4" cx="26.44" cy="11.51" r="35.76" gradientTransform="matrix(1, 0, 0, 1, 0, 0)" xlink:href="#Ny_övertoningsruta_3"/><radialGradient id="Ny_övertoningsruta_3-5" cx="26.56" cy="11.52" r="35.7" gradientTransform="matrix(1, 0, 0, 1, 0, 0)" xlink:href="#Ny_övertoningsruta_3"/><radialGradient id="Ny_övertoningsruta_3-6" cx="25.16" cy="9.91" r="39.56" gradientTransform="matrix(1, 0, 0, 1, 0, 0)" xlink:href="#Ny_övertoningsruta_3"/><radialGradient id="Ny_övertoningsruta_3-7" cx="27.24" cy="11.12" r="36.52" gradientTransform="matrix(1, 0, 0, 1, 0, 0)" xlink:href="#Ny_övertoningsruta_3"/><radialGradient id="Ny_övertoningsruta_3-8" cx="25.87" cy="10.32" r="37.96" gradientTransform="matrix(1, 0, 0, 1, 0, 0)" xlink:href="#Ny_övertoningsruta_3"/><radialGradient id="Ny_övertoningsruta_3-9" cx="26.23" cy="11.63" r="35.9" gradientTransform="matrix(1, 0, 0, 1, 0, 0)" xlink:href="#Ny_övertoningsruta_3"/><radialGradient id="Ny_övertoningsruta_3-10" cx="25.83" cy="11.03" r="37.35" gradientTransform="matrix(1, 0, 0, 1, 0, 0)" xlink:href="#Ny_övertoningsruta_3"/><radialGradient id="Ny_övertoningsruta_3-11" cx="27.03" cy="11.32" r="36.49" gradientTransform="matrix(1, 0, 0, 1, 0, 0)" xlink:href="#Ny_övertoningsruta_3"/><radialGradient id="Ny_övertoningsruta_3-12" cx="25.92" cy="11.58" r="37.53" gradientTransform="matrix(1, 0, 0, 1, 0, 0)" xlink:href="#Ny_övertoningsruta_3"/><radialGradient id="Ny_övertoningsruta_3-13" cx="26.3" cy="11.37" r="36.3" gradientTransform="matrix(1, 0, 0, 1, 0, 0)" xlink:href="#Ny_övertoningsruta_3"/><radialGradient id="Ny_övertoningsruta_3-14" cx="26.39" cy="11.42" r="36.79" gradientTransform="matrix(1, 0, 0, 1, 0, 0)" xlink:href="#Ny_övertoningsruta_3"/><radialGradient id="Ny_övertoningsruta_3-15" cx="26.32" cy="11.66" r="36.38" gradientTransform="matrix(1, 0, 0, 1, 0, 0)" xlink:href="#Ny_övertoningsruta_3"/><radialGradient id="Ny_övertoningsruta_3-16" cx="26.5" cy="11.71" r="37.24" gradientTransform="matrix(1, 0, 0, 1, 0, 0)" xlink:href="#Ny_övertoningsruta_3"/><radialGradient id="Ny_övertoningsruta_3-17" cx="26.32" cy="11.76" r="36.28" gradientTransform="matrix(1, 0, 0, 1, 0, 0)" xlink:href="#Ny_övertoningsruta_3"/><radialGradient id="Ny_övertoningsruta_3-18" cx="26.47" cy="11.66" r="36.41" gradientTransform="matrix(1, 0, 0, 1, 0, 0)" xlink:href="#Ny_övertoningsruta_3"/><radialGradient id="Ny_övertoningsruta_3-19" cx="26.51" cy="11.86" r="37.1" gradientTransform="matrix(1, 0, 0, 1, 0, 0)" xlink:href="#Ny_övertoningsruta_3"/><radialGradient id="Ny_övertoningsruta_3-20" cx="26.6" cy="11.84" r="36.2" gradientTransform="matrix(1, 0, 0, 1, 0, 0)" xlink:href="#Ny_övertoningsruta_3"/><radialGradient id="Ny_övertoningsruta_3-21" cx="26.7" cy="11.47" r="36.77" gradientTransform="matrix(1, 0, 0, 1, 0, 0)" xlink:href="#Ny_övertoningsruta_3"/><radialGradient id="Ny_övertoningsruta_3-22" cx="26.31" cy="11.54" r="36.14" gradientTransform="matrix(1, 0, 0, 1, 0, 0)" xlink:href="#Ny_övertoningsruta_3"/><radialGradient id="Ny_övertoningsruta_3-23" cx="26.69" cy="11.67" r="36.56" gradientTransform="matrix(1, 0, 0, 1, 0, 0)" xlink:href="#Ny_övertoningsruta_3"/><radialGradient id="Ny_övertoningsruta_3-24" cx="26.92" cy="11.19" r="36.92" gradientTransform="matrix(1, 0, 0, 1, 0, 0)" xlink:href="#Ny_övertoningsruta_3"/><radialGradient id="Ny_övertoningsruta_3-25" cx="26.72" cy="11.78" r="36.05" gradientTransform="matrix(1, 0, 0, 1, 0, 0)" xlink:href="#Ny_övertoningsruta_3"/><radialGradient id="Ny_övertoningsruta_3-26" cx="27.19" cy="11.32" r="36.93" gradientTransform="matrix(1, 0, 0, 1, 0, 0)" xlink:href="#Ny_övertoningsruta_3"/><radialGradient id="Ny_övertoningsruta_3-27" cx="26.76" cy="11.37" r="36.23" gradientTransform="matrix(1, 0, 0, 1, 0, 0)" xlink:href="#Ny_övertoningsruta_3"/><radialGradient id="Ny_övertoningsruta_3-28" cx="27.34" cy="11.45" r="37.54" gradientTransform="matrix(1, 0, 0, 1, 0, 0)" xlink:href="#Ny_övertoningsruta_3"/><radialGradient id="Ny_övertoningsruta_3-29" cx="26.71" cy="11.45" r="36.58" gradientTransform="matrix(1, 0, 0, 1, 0, 0)" xlink:href="#Ny_övertoningsruta_3"/><radialGradient id="Ny_övertoningsruta_3-30" cx="27.09" cy="10.69" r="36.97" gradientTransform="matrix(1, 0, 0, 1, 0, 0)" xlink:href="#Ny_övertoningsruta_3"/><radialGradient id="Ny_övertoningsruta_3-31" cx="27.03" cy="11.15" r="36.46" gradientTransform="matrix(1, 0, 0, 1, 0, 0)" xlink:href="#Ny_övertoningsruta_3"/><radialGradient id="Ny_övertoningsruta_3-32" cx="26.99" cy="11.16" r="36.67" gradientTransform="matrix(1, 0, 0, 1, 0, 0)" xlink:href="#Ny_övertoningsruta_3"/><radialGradient id="Ny_övertoningsruta_3-33" cx="26.96" cy="10.86" r="36.86" gradientTransform="matrix(1, 0, 0, 1, 0, 0)" xlink:href="#Ny_övertoningsruta_3"/><radialGradient id="Ny_övertoningsruta_3-34" cx="26.28" cy="10.47" r="37.82" gradientTransform="matrix(1, 0, 0, 1, 0, 0)" xlink:href="#Ny_övertoningsruta_3"/><radialGradient id="Ny_övertoningsruta_3-35" cx="27.04" cy="10.61" r="37.23" gradientTransform="matrix(1, 0, 0, 1, 0, 0)" xlink:href="#Ny_övertoningsruta_3"/><radialGradient id="Ny_övertoningsruta_3-36" cx="26.17" cy="10.44" r="37.63" gradientTransform="matrix(1, 0, 0, 1, 0, 0)" xlink:href="#Ny_övertoningsruta_3"/><radialGradient id="Ny_övertoningsruta_3-37" cx="26.24" cy="10.92" r="36.95" gradientTransform="matrix(1, 0, 0, 1, 0, 0)" xlink:href="#Ny_övertoningsruta_3"/><radialGradient id="Ny_övertoningsruta_3-38" cx="26.1" cy="10.87" r="36.73" gradientTransform="matrix(1, 0, 0, 1, 0, 0)" xlink:href="#Ny_övertoningsruta_3"/><radialGradient id="Ny_övertoningsruta_3-39" cx="25.2" cy="9.62" r="39" gradientTransform="matrix(1, 0, 0, 1, 0, 0)" xlink:href="#Ny_övertoningsruta_3"/></defs><path class="cls-1" d="M45.2,24A21.2,21.2,0,1,1,24,2.8,21.2,21.2,0,0,1,45.2,24Z"/><path class="cls-2" d="M24,1A23,23,0,1,0,47,24,23,23,0,0,0,24,1Zm0,45A22,22,0,1,1,46,24,22,22,0,0,1,24,46Z"/><path class="cls-3" d="M24,2A22,22,0,1,0,46,24,22,22,0,0,0,24,2Zm0,43A21,21,0,1,1,45,24,21,21,0,0,1,24,45Z"/><path class="cls-4" d="M24,46.1A22.1,22.1,0,1,1,46.1,24,22.12,22.12,0,0,1,24,46.1Zm0-44A21.9,21.9,0,1,0,45.9,24,21.92,21.92,0,0,0,24,2.1Z"/><path class="cls-5" d="M42.39,29.17c-.15.7-2,.57-2.54.56a.92.92,0,0,0-.84.68,12.69,12.69,0,0,1-1.63.14c-1.66,0-2.1-.64-2.1-.64-.75,0-.81.66-1.53.89-.39.12-.9-.69-.9-.69a10.14,10.14,0,0,1-3.4-.25c-.47-.32-1.42-2-1.78-2a3.36,3.36,0,0,0-.55,0c-.5.06-.76.54-.7,1.33s.26,2.33.38,2.86c.21,1,2.13,1.42,2.94,1.84l.08.41c-.95-.12-3.2-.38-2.75.15.16.19.48.5.71.8v.34a10.14,10.14,0,0,0-3.76-1,7.85,7.85,0,0,0-3.76.94l0-.38c.34-.32.55-.54.78-.77s-.7-.34-2.24-.25l.1-.42c.91-.27,2.33-.43,2.51-1.36s.34-3,.34-3c.14-1.23-.8-2-1.33-1.83a3.73,3.73,0,0,0-1.34.74c-.18.29.14.72.11,1.33,0,.35-1.13.37-2.43.28-.53,0-1.47,1-1.7,1A7.53,7.53,0,0,1,14,31c-.28,0-.59-.57-1.1-.6-.29,0-.7.56-.89.54a5.25,5.25,0,0,1-1.8-.53c-.18-.08.16-1.19.12-1.26a2.05,2.05,0,0,0-1.1.07c-.17.11-.64.54-.74.56A4.88,4.88,0,0,1,6,29.86a4.56,4.56,0,0,1,.24-1.52c.46-.46,1.36-1.22,1.23-1.48s-.94-.73-.78-1A4.2,4.2,0,0,1,7,25.34c.21-.27.7.08,1-.07s.43-.61.54-.65a3.37,3.37,0,0,1,.83-.05c.18,0,.44.74.57.74.32,0,.68,0,.79-.17A3.29,3.29,0,0,0,11,23.9c0-.42-1.22-.77-1.23-1a3.63,3.63,0,0,1,.59-1.56c.32-.11.9-.33.86-.53-.1-.62-.42-1.85-.26-2A8.93,8.93,0,0,1,12,18c.2-.14.52,0,.82.16A.82.82,0,0,0,13.94,18c.12-.22.09-1.5.26-1.61s.69-.39.84-.48.87.33,1,.19c.39-.46.62-.77.56-1a6,6,0,0,1-.33-1.61,5.87,5.87,0,0,1,.5-1c.25-.33,1.15-.14,1.51-.46s.26-.83.91-.9a7,7,0,0,0,2.26-1.06,6.13,6.13,0,0,1,2.43.14c.31,0,.88-.53,1.15-.56a5.29,5.29,0,0,1,1.56.28c.23.1.26,1.1.79,1.28a6,6,0,0,0,1.25.33c1.07.14,1.38-.73,1.75-.64a2.44,2.44,0,0,1,1.29.95c.29.37-.2,1.7.49,2,.87.36,1.79,1.33,1.72,1.61s-.55,1.15-.34,1.44.81,0,1.08-.1a1.62,1.62,0,0,1,1.08.3,3.34,3.34,0,0,0,.76.79c.47.22,1.16.53,1.23.73.23.67-.32,1.59-.22,1.9,0,0,.87.32,1,.56a17,17,0,0,1,0,1.79,2.47,2.47,0,0,1,1.36,0c.36.13.51.58.67,1.12,0,.14.5.21.55.33.27.65.25,1.08,0,1.19-.6.25-2,.73-1.79,1.29s.43.54.68.57a5.84,5.84,0,0,1,1.75.31A1.7,1.7,0,0,1,42.39,29.17Z"/><path class="cls-6" d="M38.85,20.67l-.53.37a.24.24,0,0,1,.09.11l.51-.32A.77.77,0,0,0,38.85,20.67Z"/><path class="cls-7" d="M38.91,20.8l-.51.33h0s0,.13,0,.23l.5-.33v-.1A.59.59,0,0,0,38.91,20.8Z"/><path class="cls-8" d="M38.93,21l-.5.33c0,.11,0,.28,0,.43l.51-.38Z"/><path class="cls-9" d="M38.93,21.38l-.51.37c0,.53,0,1.21,0,1.21l0,0,.59-.75H39S38.94,22,38.93,21.38Z"/><path class="cls-10" d="M36.3,17l-.46.42.27.31.48-.4A2.44,2.44,0,0,1,36.3,17Z"/><path class="cls-11" d="M36.56,17.26l-.47.4a2.19,2.19,0,0,0,.22.2l.48-.44A1.27,1.27,0,0,1,36.56,17.26Z"/><path class="cls-6" d="M39,22.2l-.6.75a3.26,3.26,0,0,1,.42-.1l.59-.67A1.85,1.85,0,0,0,39,22.2Z"/><path class="cls-12" d="M38.79,22.85l.19,0,.56-.63-.16,0Z"/><path class="cls-12" d="M35.68,17.16l.18.23.46-.42c-.06-.08-.16-.2-.27-.32a1,1,0,0,0-.5-.29l-.58.52A1.42,1.42,0,0,1,35.68,17.16Z"/><path class="cls-13" d="M24.75,9.84l-.05-.58a4.16,4.16,0,0,0-.51.28l0,.6Z"/><path class="cls-14" d="M39.52,22.2l-.57.63h.16l.54-.6Z"/><path class="cls-15" d="M39.63,22.21l-.55.61a1.65,1.65,0,0,1,.69.09l.36-.52A2,2,0,0,0,39.63,22.21Z"/><path class="cls-12" d="M36.45,18l.16.08.5-.46-.19-.09-.16-.08-.48.44A1.2,1.2,0,0,0,36.45,18Z"/><path class="cls-16" d="M25,9.73h.24l0-.55h-.22a1.07,1.07,0,0,0-.4.1l.05.58A1,1,0,0,1,25,9.73Z"/><path class="cls-17" d="M26.38,9.93l.36-.44a8.59,8.59,0,0,0-1.46-.31l0,.55A6.33,6.33,0,0,1,26.38,9.93Z"/><path class="cls-18" d="M26.56,10c.06,0,.11.13.17.28l.38-.49a.54.54,0,0,0-.26-.26l-.14,0-.35.45Z"/><path class="cls-6" d="M26.87,10.68l.41-.55a2.22,2.22,0,0,0-.18-.38l-.38.49C26.76,10.36,26.81,10.53,26.87,10.68Z"/><path class="cls-10" d="M27.23,11.22l.36-.49c-.13-.08-.21-.36-.32-.62l-.41.54A1.14,1.14,0,0,0,27.23,11.22Z"/><path class="cls-17" d="M27.36,11.29a5.64,5.64,0,0,0,1.48.35l.07-.57a2.71,2.71,0,0,1-1.34-.36l-.36.5A.53.53,0,0,0,27.36,11.29Z"/><path class="cls-11" d="M30,11.16l.08-.73a2.61,2.61,0,0,0-.57.36l-.12.76A2.46,2.46,0,0,0,30,11.16Z"/><path class="cls-19" d="M29.37,11.54l.13-.77a1.16,1.16,0,0,1-.61.3l-.08.57A1.4,1.4,0,0,0,29.37,11.54Z"/><path class="cls-20" d="M30.37,11l.11,0,.12-.56a.88.88,0,0,0-.3-.07.67.67,0,0,0-.28.06l-.08.74C30.1,11.05,30.23,10.94,30.37,11Z"/><path class="cls-21" d="M30.85,11.18l.12-.56a3.34,3.34,0,0,0-.4-.18l-.11.56A2.32,2.32,0,0,1,30.85,11.18Z"/><path class="cls-22" d="M31.19,11.43l.21-.53a4.82,4.82,0,0,0-.45-.29l-.12.56A2.47,2.47,0,0,1,31.19,11.43Z"/><path class="cls-23" d="M31.6,11.87l.46-.35a3.21,3.21,0,0,0-.68-.64l-.22.53A2.78,2.78,0,0,1,31.6,11.87Z"/><path class="cls-24" d="M31.7,12l.48-.32a.41.41,0,0,0-.06-.11L32,11.5l-.46.34.07.08A.61.61,0,0,1,31.7,12Z"/><path class="cls-6" d="M31.74,12.88l.57-.41a2,2,0,0,0-.15-.8l-.47.33A3,3,0,0,1,31.74,12.88Z"/><path class="cls-9" d="M31.85,13.64l.5-.39a6.07,6.07,0,0,1,0-.8l-.57.41A1.59,1.59,0,0,0,31.85,13.64Z"/><path class="cls-25" d="M32,13.8l.5-.37a.24.24,0,0,1-.11-.2l-.52.39A.68.68,0,0,0,32,13.8Z"/><path class="cls-26" d="M32.44,13.41l-.5.37a.57.57,0,0,0,.18.12l.11,0,.48-.36Z"/><path class="cls-21" d="M32.64,14.18l.44-.32-.39-.28-.48.36A3.62,3.62,0,0,1,32.64,14.18Z"/><path class="cls-15" d="M33.64,15.07l.43-.3a6.59,6.59,0,0,0-1-.93l-.44.33A4.34,4.34,0,0,1,33.64,15.07Z"/><path class="cls-19" d="M33.78,15.28l.43-.32a1.46,1.46,0,0,0-.16-.21l-.42.3A1.82,1.82,0,0,1,33.78,15.28Z"/><path class="cls-6" d="M33.84,15.51l.5-.35a2,2,0,0,0-.14-.22l-.43.31A.41.41,0,0,1,33.84,15.51Z"/><path class="cls-9" d="M33.84,15.51a4,4,0,0,1-.14.41l.72-.49a.69.69,0,0,0-.09-.29l-.48.35Z"/><path class="cls-27" d="M33.54,17l.74-.69c-.14,0,0-.37.13-.75a.53.53,0,0,0,0-.13l-.71.47c-.21.54-.32.89-.19,1.08C33.53,17,33.53,17,33.54,17Z"/><path class="cls-26" d="M33.73,17l.82-.75-.21,0a.13.13,0,0,1-.09,0l-.73.68S33.62,17,33.73,17Z"/><path class="cls-15" d="M34.6,16.87a1.21,1.21,0,0,1,.41,0l.56-.52a2.86,2.86,0,0,0-1-.1L33.7,17A5.63,5.63,0,0,0,34.6,16.87Z"/><path class="cls-23" d="M37.19,18.32l.56-.41a5.48,5.48,0,0,0-.67-.36l-.5.46Z"/><path class="cls-12" d="M37.5,18.51l.55-.34a1.81,1.81,0,0,0-.33-.28l-.55.42Z"/><path class="cls-6" d="M37.67,18.71l.54-.28a1,1,0,0,0-.18-.28l-.56.34c.08.06.17.13.19.2Z"/><path class="cls-7" d="M37.65,19.56l.6-.37a2.13,2.13,0,0,0,0-.78l-.54.28A1.61,1.61,0,0,1,37.65,19.56Z"/><path class="cls-9" d="M37.43,20.59h0l.61-.38v0a6.87,6.87,0,0,0,.17-1l-.59.37A4,4,0,0,0,37.43,20.59Z"/><path class="cls-12" d="M37.71,20.71l.57-.41c-.14-.05-.21-.08-.2-.12l-.65.41Z"/><path class="cls-15" d="M38.34,21.06l.53-.35a1.11,1.11,0,0,0-.61-.42l-.57.41A2,2,0,0,1,38.34,21.06Z"/><path class="cls-12" d="M40.1,22.38l-.35.52a.56.56,0,0,1,.28.21l.37-.48A.91.91,0,0,0,40.1,22.38Z"/><path class="cls-6" d="M40.63,23a1.87,1.87,0,0,0-.25-.41l-.37.47a1.13,1.13,0,0,1,.22.39Z"/><path class="cls-28" d="M40.4,24s.09.1.21.14l.42-.48-.09-.06c-.13-.09-.2-.34-.32-.61l-.4.45A3.36,3.36,0,0,1,40.4,24Z"/><path class="cls-12" d="M41,23.66l-.43.48c.15.07.35.12.38.2l0,0,.37-.47Z"/><path class="cls-29" d="M41.33,23.87l-.37.47a.75.75,0,0,1,.06.13l.43-.47A.74.74,0,0,0,41.33,23.87Z"/><path class="cls-9" d="M41.07,25.41l.53.16A2.07,2.07,0,0,0,41.47,24a.21.21,0,0,0,0-.06l-.42.46C41.18,24.89,41.2,25.23,41.07,25.41Z"/><path class="cls-30" d="M40.94,25.51c-.26.11-.7.27-1.07.46l.67.3.79-.37a.64.64,0,0,0,.28-.35l-.53-.17A.29.29,0,0,1,40.94,25.51Z"/><path class="cls-31" d="M40.57,26.25,39.89,26a3.28,3.28,0,0,0-.37.22l.69.24Z"/><path class="cls-32" d="M39.54,26.16a1.16,1.16,0,0,0-.37.36l.73.07A.37.37,0,0,1,40,26.5l.2-.1Z"/><path class="cls-31" d="M39.92,26.57l-.74-.08a.39.39,0,0,0,0,.35l.68-.09C39.8,26.69,39.86,26.62,39.92,26.57Z"/><path class="cls-33" d="M39.81,26.73l-.68.08a1.22,1.22,0,0,0,.14.28l.68-.27C39.84,26.81,39.81,26.77,39.81,26.73Z"/><path class="cls-9" d="M39.49,27.3l.71-.47-.28,0-.66.26A.56.56,0,0,0,39.49,27.3Z"/><path class="cls-28" d="M39.84,27.4H40l.75-.54-.54,0-.71.46A.75.75,0,0,0,39.84,27.4Z"/><path class="cls-29" d="M40.87,27.51l.68-.48a5.49,5.49,0,0,0-.85-.16l-.75.54C40.24,27.44,40.58,27.46,40.87,27.51Z"/><path class="cls-22" d="M41.58,27.7a.85.85,0,0,1,.21.14l.5-.36a1.54,1.54,0,0,0-.53-.38L41.53,27l-.68.47A2.8,2.8,0,0,1,41.58,27.7Z"/><path class="cls-34" d="M42.05,28.12l.48-.32a2,2,0,0,0-.26-.34l-.51.35A1.74,1.74,0,0,1,42.05,28.12Z"/><path class="cls-13" d="M42.37,29.16a.41.41,0,0,1-.09.19l.54.32a1,1,0,0,0,.12-.38,2.59,2.59,0,0,0-.43-1.51L42,28.1A1.54,1.54,0,0,1,42.37,29.16Z"/><path class="cls-7" d="M42.83,29.64l-.53-.31c-.25.32-1,.4-1.61.4l.2.61C41.65,30.31,42.53,30.16,42.83,29.64Z"/><path class="cls-32" d="M39.84,29.71a.82.82,0,0,0-.26,0l.17.59h0c.08,0,.57,0,1.13,0l-.2-.61C40.35,29.74,40,29.72,39.84,29.71Z"/><path class="cls-7" d="M39.07,30.2l.27.74c.2-.17.22-.57.44-.6l-.17-.6A.93.93,0,0,0,39.07,30.2Z"/><path class="cls-35" d="M39.36,30.91l-.27-.73a1.1,1.1,0,0,0-.11.25l.21.58.12-.05S39.35,30.93,39.36,30.91Z"/><path class="cls-32" d="M37.38,30.54c-1.66,0-2.09-.66-2.09-.66h0l-.19.7a.3.3,0,0,1,.13.06,4.44,4.44,0,0,0,2.15.52A8.27,8.27,0,0,0,39.21,31L39,30.4A14.4,14.4,0,0,1,37.38,30.54Z"/><path class="cls-30" d="M34.43,30.32l-.21.93a2.66,2.66,0,0,0,.63-.51c.14-.13.19-.17.25-.15l.19-.71A1.09,1.09,0,0,0,34.43,30.32Z"/><path class="cls-35" d="M33.73,30.78l-.14.65a1.36,1.36,0,0,0,.66-.19l.21-.95A1.54,1.54,0,0,1,33.73,30.78Z"/><path class="cls-32" d="M32.85,30.08h0l-.32.62h0a1.34,1.34,0,0,0,1.07.72l.14-.66C33.36,30.9,32.85,30.08,32.85,30.08Z"/><path class="cls-35" d="M29.44,29.83l-.36.51a4.79,4.79,0,0,0,2,.37l.26-.6A5,5,0,0,1,29.44,29.83Z"/><path class="cls-32" d="M27.67,27.81h-.41l.11.6a.27.27,0,0,1,.2.08c.38.29,1.27,1.74,1.54,1.87l.35-.51C29,29.52,28,27.82,27.67,27.81Z"/><path class="cls-35" d="M27.29,27.81a1,1,0,0,0-.45.1l.31.57a.43.43,0,0,1,.25-.07Z"/><path class="cls-32" d="M26.54,28.24l.49.54a.39.39,0,0,1,.14-.32l-.31-.56A.67.67,0,0,0,26.54,28.24Z"/><path class="cls-30" d="M31.32,30.11l-.27.6c.58,0,1.16,0,1.49,0l.31-.63A12.3,12.3,0,0,1,31.32,30.11Z"/><path class="cls-36" d="M26.39,29.06l.67.43a3.26,3.26,0,0,1,0-.75l-.48-.53A1.72,1.72,0,0,0,26.39,29.06Z"/><path class="cls-9" d="M26.81,32.15l.57-.18c0-.2-.25-1.71-.33-2.5L26.39,29A30,30,0,0,0,26.81,32.15Z"/><path class="cls-37" d="M27.38,32l-.58.18a1.43,1.43,0,0,0,.23.38l.52-.33A.4.4,0,0,1,27.38,32Z"/><path class="cls-12" d="M27.53,32.16l-.52.32a2.56,2.56,0,0,0,.73.56l.39-.51A3.34,3.34,0,0,1,27.53,32.16Z"/><path class="cls-38" d="M28.66,33.44l.31-.52c-.28-.12-.61-.27-.87-.4l-.39.5A9.1,9.1,0,0,0,28.66,33.44Z"/><path class="cls-39" d="M29.42,33.74l.3-.51-.78-.33-.31.53Z"/><path class="cls-40" d="M29.76,33.9l.37-.43a1.25,1.25,0,0,0-.44-.26l-.3.52Z"/><path class="cls-36" d="M29.81,34.31l.56.52c.12-.08,0-.67-.1-1a1,1,0,0,0-.16-.35l-.38.45Z"/><path class="cls-35" d="M29,34.17l.54.59.67.1c.14,0,.18,0,.21,0l-.59-.54Z"/><path class="cls-35" d="M27.76,35.58l.47.61c.14-.07.11-.48.1-.77l-.57-.18Z"/><path class="cls-41" d="M28.09,34.68a9.68,9.68,0,0,1,1.45.08L29,34.17c-.87-.08-2-.14-2,.12l1.06.45C28,34.69,28.06,34.68,28.09,34.68Z"/><path class="cls-30" d="M28,34.7,27,34.27a.2.2,0,0,0,.05.16,10.57,10.57,0,0,1,.75.85l.54.17a2,2,0,0,0,0-.32C28.21,34.93,28,34.76,28,34.7Z"/><path class="cls-32" d="M27.52,35.44l0,.66c.41.15.62.15.71.07l-.5-.63Z"/><path class="cls-35" d="M24.45,34.62l-.13.62a8.72,8.72,0,0,1,3,.75l.29.12,0-.66A9.83,9.83,0,0,0,24.45,34.62Z"/><path class="cls-32" d="M20.48,35.43l-.29.77a8.06,8.06,0,0,1,4.16-1l.13-.62A7.62,7.62,0,0,0,20.48,35.43Z"/><path class="cls-42" d="M20.23,35.55l-.41.7c.07,0,.21,0,.41-.07l.29-.77Z"/><path class="cls-32" d="M19.77,36.19a.11.11,0,0,0,.08.07l.42-.73,0-.38-.58,0A2.4,2.4,0,0,0,19.77,36.19Z"/><path class="cls-36" d="M20.06,34.64c.15,0-.36.29-.41.52l.59,0c.34-.32.56-.54.78-.77,0,0,.08-.1.05-.14Z"/><path class="cls-42" d="M20.46,34.11l-.66.51c.22,0,.27,0,.28,0l1-.36C21.08,34.19,20.86,34.13,20.46,34.11Z"/><path class="cls-32" d="M18.74,34.14l-.59.41c.11.22,1,0,1.68.07l.66-.51A15.47,15.47,0,0,0,18.74,34.14Z"/><path class="cls-36" d="M18.89,33.72l-.33-.44a2.21,2.21,0,0,0-.42,1.2.17.17,0,0,0,0,.1l.61-.45Z"/><path class="cls-13" d="M20,33.47,19.53,33l-.89.25-.1.07.34.46C19.2,33.66,19.66,33.56,20,33.47Z"/><path class="cls-43" d="M20.64,33.22l-.48-.47a5.66,5.66,0,0,1-.66.24l.44.49A4.82,4.82,0,0,0,20.64,33.22Z"/><path class="cls-37" d="M21.19,32.81l-.47-.46a1.54,1.54,0,0,1-.58.41l.48.47A1.51,1.51,0,0,0,21.19,32.81Z"/><path class="cls-44" d="M21.39,32.39c.15-.81.36-3.11.35-3.24l-.63.18c-.07.81-.18,2.31-.31,2.85a.39.39,0,0,1-.1.19l.47.46A1,1,0,0,0,21.39,32.39Z"/><path class="cls-30" d="M21.39,28l-.47.36a1.57,1.57,0,0,1,.19,1l.63-.18A1.94,1.94,0,0,0,21.39,28Z"/><path class="cls-32" d="M20.38,27.53a3.75,3.75,0,0,0-1.37.76l.64.44c-.07-.29.75-.62.91-.62a.55.55,0,0,1,.37.3l.47-.36A1,1,0,0,0,20.38,27.53Z"/><path class="cls-30" d="M19,28.28c-.12.2,0,.46.06.78l.68.51a4.65,4.65,0,0,0-.11-.87L19,28.27Z"/><path class="cls-35" d="M19.13,29.61a.12.12,0,0,1,0,.09l.4.45a.74.74,0,0,0,.27-.6L19.07,29A2.07,2.07,0,0,1,19.13,29.61Z"/><path class="cls-36" d="M18.67,29.87l.25.52a1.12,1.12,0,0,0,.59-.25l-.41-.45C19.05,29.77,18.9,29.83,18.67,29.87Z"/><path class="cls-32" d="M16.7,29.88l.13.58c.45,0,1.57,0,2.11-.08l-.24-.51A11.07,11.07,0,0,1,16.7,29.88Z"/><path class="cls-45" d="M15.71,30.4l.19.65a3.14,3.14,0,0,1,.79-.58h.16l-.13-.58A1.88,1.88,0,0,0,15.71,30.4Z"/><path class="cls-35" d="M15.74,30.38c-.36.28-.62.54-.75.55l.16.58a2,2,0,0,0,.77-.49Z"/><path class="cls-32" d="M14,31c-.25,0-.56-.47-1-.58L13,31a.33.33,0,0,1,.17.1,1.19,1.19,0,0,0,.78.47,9.81,9.81,0,0,0,1.28-.06L15,30.93A9.17,9.17,0,0,1,14,31Z"/><path class="cls-46" d="M12.85,30.38c-.2,0-.46.26-.66.42l.12.65A3.43,3.43,0,0,0,12.8,31,.18.18,0,0,1,13,31l0-.6Z"/><path class="cls-35" d="M12.22,30.79a.62.62,0,0,1-.27.15h0l0,.6a.67.67,0,0,0,.37-.11Z"/><path class="cls-32" d="M10.18,30.41a.11.11,0,0,1,0-.05l-.5.32A1,1,0,0,0,10,31a6.3,6.3,0,0,0,2,.56l-.05-.6A5.32,5.32,0,0,1,10.18,30.41Z"/><path class="cls-47" d="M10.24,29.54l-.67.51c0,.08,0,.19,0,.3a.5.5,0,0,0,.12.35l.49-.32A1.87,1.87,0,0,1,10.24,29.54Z"/><path class="cls-35" d="M10.3,29.15h0l-.76.62h0s0,.09,0,.32l.66-.51A1.45,1.45,0,0,0,10.3,29.15Z"/><path class="cls-32" d="M9.31,29.16l.06.73a.48.48,0,0,1,.11-.09.13.13,0,0,1,.07,0l.75-.61A2.28,2.28,0,0,0,9.31,29.16Z"/><path class="cls-48" d="M9.17,29.22c-.12.07-.4.31-.58.45l.27.58a5.77,5.77,0,0,0,.53-.38l-.05-.72A.54.54,0,0,0,9.17,29.22Z"/><path class="cls-32" d="M8.43,29.77A4.59,4.59,0,0,1,6,29.84l-.54.29,0,0c.24.31,1.31.51,3.08.21a1.28,1.28,0,0,0,.36-.13l-.27-.59A.66.66,0,0,1,8.43,29.77Z"/><path class="cls-48" d="M6.14,28.55l-.54-.22a4.81,4.81,0,0,0-.16,1.83L6,29.85A7.31,7.31,0,0,1,6.14,28.55Z"/><path class="cls-49" d="M6.22,28.36l.22-.22-.54-.35a1.3,1.3,0,0,0-.18.23,1.27,1.27,0,0,0-.13.34l.54.22A.59.59,0,0,1,6.22,28.36Z"/><path class="cls-50" d="M7.45,26.88,6.6,27l0,0c.07.12-.43.47-.74.8l.53.36C6.86,27.74,7.52,27.12,7.45,26.88Z"/><path class="cls-51" d="M7.44,26.86A5.79,5.79,0,0,0,7,26.4l-.73.06a5.83,5.83,0,0,0,.39.54l.83-.09A.07.07,0,0,0,7.44,26.86Z"/><path class="cls-8" d="M6.65,25.92,6,25.9a1.22,1.22,0,0,0,.24.58L7,26.43C6.81,26.26,6.62,26.06,6.65,25.92Z"/><path class="cls-6" d="M6.79,25.68l-.61-.18L6,25.77a.24.24,0,0,0,0,.15l.64,0C6.64,25.89,6.66,25.87,6.79,25.68Z"/><path class="cls-25" d="M7,25.34a.24.24,0,0,1,.11-.08l-.22-.56a2.13,2.13,0,0,0-.76.83l.61.18A4.28,4.28,0,0,1,7,25.34Z"/><path class="cls-9" d="M7.54,25.28l-.09-.65a.86.86,0,0,0-.56.08l.22.56A.79.79,0,0,1,7.54,25.28Z"/><path class="cls-6" d="M7.42,24.63l.1.65a1,1,0,0,0,.38,0l-.12-.71A1.89,1.89,0,0,1,7.42,24.63Z"/><path class="cls-25" d="M7.84,24.58a.3.3,0,0,1-.08,0l.12.7A.27.27,0,0,0,8,25.27Z"/><path class="cls-49" d="M8.32,24.92l-.21-.69c-.13.15-.24.34-.29.37l.17.69A1.1,1.1,0,0,0,8.32,24.92Z"/><path class="cls-6" d="M8.1,24.25l.2.7a2.62,2.62,0,0,1,.17-.27l-.17-.62A.92.92,0,0,0,8.1,24.25Z"/><path class="cls-25" d="M8.52,24.64l.08,0L8.53,24l-.15,0-.1,0,.17.62S8.5,24.64,8.52,24.64Z"/><path class="cls-9" d="M9.19,24.58l0-.61a3.33,3.33,0,0,0-.73,0l.08.62A3.44,3.44,0,0,1,9.19,24.58Z"/><path class="cls-25" d="M9.2,24l0,.61h.18L9.49,24Z"/><path class="cls-19" d="M9.5,24h0l-.15.61h0l.08,0L9.69,24Z"/><path class="cls-49" d="M9.61,24.9l.29-.69a.48.48,0,0,0-.23-.2l-.27.6A1,1,0,0,1,9.61,24.9Z"/><path class="cls-25" d="M9.81,25.24l.29-.73c-.07-.1-.15-.25-.22-.33l-.29.68C9.66,25,9.74,25.14,9.81,25.24Z"/><path class="cls-49" d="M9.92,25.33h.13l.19-.64a1.93,1.93,0,0,1-.17-.21l-.28.72C9.84,25.28,9.88,25.33,9.92,25.33Z"/><path class="cls-48" d="M10.63,25.25l-.27-.57,0,0c-.05,0-.06,0-.11,0l-.2.67A1.31,1.31,0,0,0,10.63,25.25Z"/><path class="cls-49" d="M10.73,25.15a.67.67,0,0,0,.06-.15l-.39-.47c0,.09,0,.15-.06.16h0l.27.56A.24.24,0,0,0,10.73,25.15Z"/><path class="cls-6" d="M10.9,24.7l-.47-.4a1.78,1.78,0,0,1,0,.26l.4.46A2.39,2.39,0,0,0,10.9,24.7Z"/><path class="cls-52" d="M11,23.9a.25.25,0,0,0,0-.08l-.62.19a.64.64,0,0,1,0,.32l.47.39A2.9,2.9,0,0,0,11,23.9Z"/><path class="cls-51" d="M10.62,23.45,10,23.7c.2.13.41.26.43.33l.62-.18A.8.8,0,0,0,10.62,23.45Z"/><path class="cls-53" d="M10.16,23.18l-.61.22a4.6,4.6,0,0,0,.45.32l.65-.25A4.85,4.85,0,0,0,10.16,23.18Z"/><path class="cls-9" d="M9.8,22.87,9.26,23a.83.83,0,0,0,.31.41l.62-.22C9.91,23,9.79,23,9.8,22.87Z"/><path class="cls-54" d="M9.28,22.75s0,.11,0,.14a.34.34,0,0,0,0,.14l.54-.14a1.06,1.06,0,0,1,0-.2Z"/><path class="cls-9" d="M9.86,22.56l-.53,0c0,.08,0,.18-.06.24l.55-.06S9.84,22.62,9.86,22.56Z"/><path class="cls-49" d="M10.26,21.49l-.48-.27a6.26,6.26,0,0,0-.46,1.34l.53,0A4.84,4.84,0,0,1,10.26,21.49Z"/><path class="cls-43" d="M9.77,21.24l.48.28a.45.45,0,0,1,.11-.15l-.49-.29Z"/><path class="cls-6" d="M10.52,21.31,10,21a.54.54,0,0,0-.14.16l.49.28s0,0,.05,0Z"/><path class="cls-55" d="M11,21.08l-.55-.36-.45.2L10,21l.52.35A4.25,4.25,0,0,0,11,21.08Z"/><path class="cls-43" d="M10.64,20.57v0a.38.38,0,0,1-.18.13l.54.36c.14-.09.26-.19.25-.29Z"/><path class="cls-49" d="M11.25,20.81c0-.21-.1-.52-.16-.81l-.56-.14a4.45,4.45,0,0,1,.11.73l.61.24Z"/><path class="cls-6" d="M11,19.09,10.44,19a6.13,6.13,0,0,0,.1.94l.56.14A6.9,6.9,0,0,1,11,19.09Z"/><path class="cls-56" d="M11,18.81l.15-.12-.51-.36a.81.81,0,0,0-.19.64l.51.14A.46.46,0,0,1,11,18.81Z"/><path class="cls-57" d="M11.91,18.14l-.2-.63a13.81,13.81,0,0,0-1.1.84l.5.36C11.35,18.51,11.67,18.3,11.91,18.14Z"/><path class="cls-48" d="M12,18.05a.36.36,0,0,1,.19-.05l0-.66a.63.63,0,0,0-.34.07l-.17.12.19.63Z"/><path class="cls-58" d="M12.62,18.11v-.68a1.44,1.44,0,0,0-.44-.09l0,.66A1,1,0,0,1,12.62,18.11Z"/><path class="cls-12" d="M12.6,17.43v.67a1.22,1.22,0,0,0,1.07.16l-.22-.57C13.34,17.77,13,17.55,12.6,17.43Z"/><path class="cls-52" d="M14,18l-.48-.42c0,.06,0,.08,0,.1l.21.57A.57.57,0,0,0,14,18Z"/><path class="cls-57" d="M13.52,16.94c0,.19,0,.43,0,.68L14,18a2.15,2.15,0,0,0,.1-.61Z"/><path class="cls-9" d="M14.07,17.16l-.52-.51c0,.09,0,.21,0,.31l.53.49A2.83,2.83,0,0,1,14.07,17.16Z"/><path class="cls-6" d="M14.15,16.55l-.42-.45a1.13,1.13,0,0,0-.18.58l.52.5A3.14,3.14,0,0,1,14.15,16.55Z"/><path class="cls-59" d="M14.21,16.43l.17-.11L14,15.89l-.2.14-.08.09.43.45A.26.26,0,0,1,14.21,16.43Z"/><path class="cls-57" d="M14.9,16l-.17-.59a5.89,5.89,0,0,0-.77.48l.4.42Z"/><path class="cls-9" d="M15,16a.23.23,0,0,1,.15,0L15,15.32a1.38,1.38,0,0,0-.29.12l.17.6Z"/><path class="cls-58" d="M15.32,16l-.18-.66a.5.5,0,0,0-.17,0l.19.62Z"/><path class="cls-12" d="M15.71,16.11l-.17-.68a2.83,2.83,0,0,0-.42-.13l.17.66Z"/><path class="cls-60" d="M16,16.13v0l-.22-.59h0a2.51,2.51,0,0,1-.29-.1l.18.68C15.85,16.15,16,16.19,16,16.13Z"/><path class="cls-9" d="M16.23,15.9l-.29-.51c-.06.08-.11.13-.14.13l.24.61Z"/><path class="cls-57" d="M16.61,15.27,16,15.15v0a.63.63,0,0,1-.12.23l.29.51A1.78,1.78,0,0,0,16.61,15.27Z"/><path class="cls-61" d="M16.61,15.12a1.05,1.05,0,0,1-.05-.19L16,14.81c.05.19.09.34.09.37l.56.11A.33.33,0,0,0,16.61,15.12Z"/><path class="cls-9" d="M16.38,14.27l-.58-.12c0,.23.11.5.16.69l.6.12Z"/><path class="cls-62" d="M16.29,13.49l-.54-.13a.8.8,0,0,0,0,.15,2.3,2.3,0,0,0,.08.66l.58.12C16.27,13.83,16.23,13.59,16.29,13.49Z"/><path class="cls-6" d="M16.65,12.75l-.35-.48a4.46,4.46,0,0,0-.56,1.11l.54.13C16.4,13.26,16.5,13,16.65,12.75Z"/><path class="cls-13" d="M16.78,12.56a.49.49,0,0,1,.13-.1l-.27-.56a1,1,0,0,0-.21.19l-.15.22.35.47Z"/><path class="cls-57" d="M17.27,12.36l-.26-.6a1,1,0,0,0-.39.16l.26.55A1.21,1.21,0,0,1,17.27,12.36Z"/><path class="cls-63" d="M17,11.77l.26.59c.36-.06.83-.06,1.06-.27l-.24-.69C17.89,11.71,17.4,11.67,17,11.77Z"/><path class="cls-9" d="M18.63,11.63l-.26-.71a1.15,1.15,0,0,0-.28.43.25.25,0,0,1,0,.07l.24.68h0A1.34,1.34,0,0,0,18.63,11.63Z"/><path class="cls-6" d="M19.21,11.2l-.13-.58a1.16,1.16,0,0,0-.73.33l.26.72C18.72,11.43,18.76,11.24,19.21,11.2Z"/><path class="cls-19" d="M20,11l-.14-.57a2.17,2.17,0,0,1-.68.19h-.07l.12.58A2.86,2.86,0,0,0,20,11Z"/><path class="cls-13" d="M20.73,10.58,20.57,10a4.45,4.45,0,0,1-.78.42l.13.57A5.6,5.6,0,0,0,20.73,10.58Z"/><path class="cls-25" d="M21.41,10.17l-.12-.61a1.05,1.05,0,0,0-.26.13c-.13.1-.29.22-.48.34l.16.57C21,10.42,21.26,10.25,21.41,10.17Z"/><path class="cls-19" d="M21.45,10.14a2.43,2.43,0,0,1,1.05-.07l0-.55a2.79,2.79,0,0,0-1.2.05l.13.61Z"/><path class="cls-21" d="M23.42,10.19l0-.51c-.27,0-.62-.12-.95-.16l0,.55C22.8,10.09,23.16,10.15,23.42,10.19Z"/><path class="cls-19" d="M23.87,10.28h0V9.72a1.53,1.53,0,0,1-.53,0l0,.51Z"/><path class="cls-16" d="M24.26,10.13l-.05-.6a1.12,1.12,0,0,1-.35.19v.56A.84.84,0,0,0,24.26,10.13Z"/><path class="cls-64" d="M22.91,21.73c-.07.17-.26.85-.56,1.06s-1.14,0-1.34.08a.34.34,0,0,0,0,.57,23.64,23.64,0,0,1,2.5,1.34c.08,0,.2,0,.24-.18s.45-2.68.41-2.77C24.07,21.49,23,21.57,22.91,21.73Z"/><path class="cls-65" d="M25.82,22.21c0,.07-.37,2.77-.31,2.8a30.37,30.37,0,0,1,2.4-1.9c.08-.05,0-.22,0-.24a3.34,3.34,0,0,0-.68-.85C27.12,22,25.83,22.19,25.82,22.21Z"/><path class="cls-66" d="M26.43,26.4c0,.15,1,.34,1.81.05.21-.07.51-.89.9-1s1.34.27,1.64,0,.19-.85-.16-.87a6.46,6.46,0,0,1-1.75-.31C28.78,24.22,26.54,25.49,26.43,26.4Z"/><path class="cls-67" d="M19.73,24.65c-.08.05-.29.6-.51.76a.61.61,0,0,1-.4.09,1.72,1.72,0,0,1-.72-.17,1,1,0,0,0-.43-.14c-.25,0-.51.29-.61.58-.23.69,1.1,1,1.28,1.08a2.42,2.42,0,0,0,1.32-.43,2.32,2.32,0,0,1,1-.29c.28,0,.64.18,1.11.23a.31.31,0,0,0,.21-.15.47.47,0,0,0,0-.4,9.82,9.82,0,0,0-1.64-1C20.18,24.7,19.83,24.59,19.73,24.65Z"/><path class="cls-68" d="M36.32,26.16a1.07,1.07,0,0,0,.1.49c0,.06.52,0,.54,0s0-.4-.36-.66C36.54,25.89,36.31,26.06,36.32,26.16Z"/><path class="cls-69" d="M8.33,27.38a1,1,0,0,0,0,.7c.2.17.83-.29.94-.44a.4.4,0,0,0,.12-.31c0-.21-.12-.25-.2-.25A4,4,0,0,0,8.33,27.38Z"/><path class="cls-70" d="M37.61,24.25a.33.33,0,0,0-.32.37c0,.23.15.41.65.38s.6.29.86.29c.56,0,.45-.54.46-.79S38.27,24.22,37.61,24.25Z"/><path class="cls-71" d="M34.21,18.7a.37.37,0,0,0-.28.46c.07.09.37,0,.76.22a4.26,4.26,0,0,1,.66,1,.78.78,0,0,0,.72.25c.17-.1-.17-1.15-.28-1.2a10.73,10.73,0,0,1-.92-.6A2,2,0,0,0,34.21,18.7Z"/><path class="cls-72" d="M36.17,22.67a.41.41,0,0,0-.17.49,1.18,1.18,0,0,0,.86.21A.28.28,0,0,0,37,23c0-.12-.27-.77-.46-.77S36.33,22.54,36.17,22.67Z"/><path class="cls-73" d="M13.55,22.93a2.34,2.34,0,0,0-.69.87c-.08.13-.17.4-.1.4a.39.39,0,0,0,.39-.17c.27-.43.63-.23.78-.37.4-.38.4-.79.35-.85A.86.86,0,0,0,13.55,22.93Z"/><path class="cls-74" d="M31.9,16.44a1.22,1.22,0,0,0,0,1.2c.09.07.39,0,.45-.08a1,1,0,0,0-.22-1C32.07,16.47,32,16.4,31.9,16.44Z"/><path class="cls-75" d="M33.1,21c-.18.06-.56.41-.48.55s.2.14.64.09c.18,0,.39.32.5.37a2.56,2.56,0,0,0,.64.18.45.45,0,0,0,.28-.36c0-.06-.37-.3-.46-.42-.24-.28-.07-.45-.15-.56A2.58,2.58,0,0,0,33.1,21Z"/><path class="cls-76" d="M27.93,19c0,.09.26.27.36.25a3.88,3.88,0,0,1,.44-.14c.38,0,1,.45,1.26.38a.45.45,0,0,0,.16-.46,1.28,1.28,0,0,0-.8-.37c-.35,0-.61-.22-.75-.15C28.08,18.73,28,18.69,27.93,19Z"/><path class="cls-77" d="M29,16c0,.09.14.24.51.56.16.13.19.43.39.67,0,0,.35.13.36.06,0-.29-.18-.4-.16-.71,0-.49,0-.62-.06-.73a1.36,1.36,0,0,0-.69-.18C29.21,15.64,29,15.83,29,16Z"/><path class="cls-78" d="M24.47,13.75c0,.22.31.56.44.56s.5-.3.83-.29a.45.45,0,0,0,.48-.52.47.47,0,0,0-.37-.18.55.55,0,0,1-.65,0C25,13.19,24.58,13.2,24.47,13.75Z"/><path class="cls-79" d="M29.18,13.7c.06.19.16.17.24.1a.72.72,0,0,1,.49-.19c.32,0,.69,1,.82,1s.13-.43.1-.62a2,2,0,0,0-.39-.74,1.5,1.5,0,0,0-.79-.42C29.38,12.81,29.12,13.5,29.18,13.7Z"/><path class="cls-80" d="M25.87,15.53c-.26.36-.51.39-.78.64s-.21.67,0,.67.26-.29.95-.56a1.63,1.63,0,0,1,1.24-.15c.24,0,.35-.26.32-.31a3.09,3.09,0,0,0-.89-.42A1.33,1.33,0,0,0,25.87,15.53Z"/><path class="cls-81" d="M25.1,11.37c-.13.23.06.69.57.74a.43.43,0,0,0,.44-.62C26,11.24,25.24,11.12,25.1,11.37Z"/><path class="cls-82" d="M21.87,11.71c-.05.14,0,.43.12.49s.27-.21.58-.17.5.38.61.38.43-.29.29-.74c0,0-.07,0-.22-.11s-.17-.25-.24-.25C22.63,11.31,22,11.34,21.87,11.71Z"/><path class="cls-83" d="M20.81,18.09c-.25.16-.65.46-.55.82,0,.12.49,0,.74,0a.81.81,0,0,0,.6-.88C21.47,17.83,21.24,17.82,20.81,18.09Z"/><path class="cls-84" d="M30.92,20.37c-.21.54-.21.75,0,.8s.3-.05.87-.73c.08-.11.41-.16.43-.17a.52.52,0,0,0,.23-.36c0-.11-.59-.37-.72-.36S31,20.28,30.92,20.37Z"/><path class="cls-85" d="M22.7,15.5c-.42.58-.39,1.29-.12,1.31.11,0,.21-.21.23-.3s0-.25.11-.44a.31.31,0,0,1,.29-.14s.15-.51,0-.61S22.85,15.29,22.7,15.5Z"/><path class="cls-86" d="M14.84,20.19a1,1,0,0,0-.29.53c0,.19.18.4.55.3s.43-.3.91-.54c.23-.11.25-.39.13-.42a5.44,5.44,0,0,0-.57-.13A1.3,1.3,0,0,0,14.84,20.19Z"/><path class="cls-87" d="M19,13.36a3.36,3.36,0,0,1-.63.12.84.84,0,0,0-.57.65,4.65,4.65,0,0,0,.36,1.49.38.38,0,0,0,.34,0c.12-.08-.14-1.19.08-1.45s1.33-.5,1.44-.68,0-.7-.12-.71S19.24,13.23,19,13.36Z"/><path class="cls-88" d="M12.69,19.23a1.84,1.84,0,0,0-.47.33.52.52,0,0,0-.13.5c.05.14.15.17.31.05a.87.87,0,0,1,.59-.28c.1,0,.13-.35,0-.49A.31.31,0,0,0,12.69,19.23Z"/><path class="cls-89" d="M17.18,23c.05,0,.47.41.3.6s-.16,0-.49.09a1.43,1.43,0,0,0-.65.41,1.84,1.84,0,0,1-.75.45.3.3,0,0,1-.2-.08.59.59,0,0,1-.08-.43c0-.08.12-.36.26-.38a1.79,1.79,0,0,0,.76-.24C16.65,23.22,16.66,22.93,17.18,23Z"/><path class="cls-90" d="M15.31,18a.56.56,0,0,0-.2.38c0,.18.28.48.49.28s.53-.85.36-.93S15.45,17.84,15.31,18Z"/><path class="cls-91" d="M18.27,17.27a1.53,1.53,0,0,0-1.15.88.31.31,0,0,0,.22.35c.19,0,.57-.58.8-.65a1.69,1.69,0,0,1,.73.13c.33.11.43.19.49,0s0-.61-.2-.66A2,2,0,0,0,18.27,17.27Z"/><path class="cls-92" d="M11.45,29c0,.27.11.43.65.46s.55-.32.48-.34a1.9,1.9,0,0,1-.75-.49A.38.38,0,0,0,11.45,29Z"/><path class="cls-93" d="M11.07,26.18a.66.66,0,0,0,.06.37.41.41,0,0,0,.2.13c.11,0,.21,0,.52-.24.12-.1.25-.09.34-.19a.23.23,0,0,0,0-.22.75.75,0,0,0-.44-.34A1.32,1.32,0,0,0,11.07,26.18Z"/><path class="cls-94" d="M12.61,21.34a1.28,1.28,0,0,0-.66.17.64.64,0,0,0-.36.63.36.36,0,0,0,.26.32.38.38,0,0,0,.39-.2.52.52,0,0,1,.5-.39c.21,0,.36,0,.43-.13s.05-.34,0-.35A1.75,1.75,0,0,0,12.61,21.34Z"/><path class="cls-95" d="M15,28.57c0,.24.13.4.26.4s.37-.11.52-.12.33.07.36,0a.43.43,0,0,0-.06-.4c-.08-.18-.3-.09-.4-.09s-.37-.16-.45-.16S15,28.48,15,28.57Z"/><path class="cls-96" d="M29.74,28.1a1,1,0,0,0,1,.24c.12,0,.23-.35.08-.43a1.16,1.16,0,0,0-.94-.15A.23.23,0,0,0,29.74,28.1Z"/><path class="cls-97" d="M13.25,27.13c-.3.1-.44.18-.48.42s.14.23.42.23c.46,0,.68-.23.68-.43C13.87,27,13.52,27.05,13.25,27.13Z"/><path class="cls-98" d="M32.36,28.57c.15.26.54,0,1,.18.14.05.34.42.57.36s.25-.49.26-.79-.42-.33-.6-.26a5.35,5.35,0,0,1-1.07.27A.25.25,0,0,0,32.36,28.57Z"/><path class="cls-99" d="M32.89,26c0,.12.74,0,1,.22s.69.28.73.2a.57.57,0,0,0-.2-.69,1.59,1.59,0,0,0-.73-.25C32.94,25.52,32.85,25.87,32.89,26Z"/><path class="cls-100" d="M37.56,28.05c-.15,0-.36.39-.68.37s-.48-.17-.61-.16-.49.44-.42.55a1.48,1.48,0,0,0,1.12.36.51.51,0,0,0,.47-.24c.15-.23.42-.27.49-.33a.61.61,0,0,0,0-.33A.51.51,0,0,0,37.56,28.05Z"/><path class="cls-101" d="M39.82,28.43A.36.36,0,0,0,40,29c.11,0,.66-.1.7-.2a.51.51,0,0,0-.27-.51C40.3,28.24,39.93,28.27,39.82,28.43Z"/><path class="cls-8" d="M27,25.57l-.13-.11a1.83,1.83,0,0,0-.57.86l.17,0A1.59,1.59,0,0,1,27,25.57Z"/><path class="cls-62" d="M26.29,26.31a.65.65,0,0,0,0,.14c0,.09.11.16.25.2l.07-.15a.3.3,0,0,1-.15-.08.11.11,0,0,1,0-.08Z"/><path class="cls-12" d="M27.27,26.57a2.41,2.41,0,0,1-.66-.07l-.07.15a3.14,3.14,0,0,0,1.85-.11l-.14-.12A2.61,2.61,0,0,1,27.27,26.57Z"/><path class="cls-12" d="M18.23,15.61l-.13.11a.52.52,0,0,0,.5,0l-.12-.13A.46.46,0,0,1,18.23,15.61Z"/><path class="cls-18" d="M18.48,14.83a3.55,3.55,0,0,1,0,.8l.11.13,0,0a1.94,1.94,0,0,0,0-.72c0-.28-.08-.62.06-.74l-.11-.13C18.43,14.28,18.46,14.56,18.48,14.83Z"/><path class="cls-19" d="M39.82,28.74l-.17,0a.52.52,0,0,0,.25.28l.09-.15A.28.28,0,0,1,39.82,28.74Z"/><path class="cls-35" d="M29.67,12.85a1.51,1.51,0,0,1,.6.28l.09-.14a1.53,1.53,0,0,0-.69-.31.57.57,0,0,0-.46.36l.15.08S29.51,12.85,29.67,12.85Z"/><path class="cls-35" d="M12.61,19.3a.27.27,0,0,1,.27,0l0-.16a.49.49,0,0,0-.43.06l-.23.17.11.13Z"/><path class="cls-62" d="M27.53,16a.22.22,0,0,1-.14.09l0,.17a.43.43,0,0,0,.21-.11Z"/><path class="cls-19" d="M18,26.72l-.06.15.34.12.05-.16Z"/><path class="cls-12" d="M20.17,13.52a.71.71,0,0,0,0-.27H20a1.16,1.16,0,0,1,0,.21.18.18,0,0,1-.05.08l.14.1A.27.27,0,0,0,20.17,13.52Z"/><path class="cls-6" d="M23.25,15.52a.55.55,0,0,1,0,.22l.17,0a.91.91,0,0,0,0-.33Z"/><path class="cls-19" d="M22.8,16.4c0,.2-.14.38-.22.38l0,.17a.53.53,0,0,0,.35-.44.61.61,0,0,1,.07-.35L23,16A.54.54,0,0,0,22.8,16.4Z"/><path class="cls-19" d="M37.06,23.37l-.13-.1a.16.16,0,0,1-.07.07l.06.16A.39.39,0,0,0,37.06,23.37Z"/><path class="cls-35" d="M25.83,11.32l.05-.16c-.2-.06-.67-.16-.88.11l.13.11C25.24,11.2,25.65,11.26,25.83,11.32Z"/><path class="cls-8" d="M26.09,11.5a.59.59,0,0,1,0,.14l.17,0a.85.85,0,0,0,0-.23.51.51,0,0,0-.37-.29l-.06.15C26,11.36,26.06,11.42,26.09,11.5Z"/><path class="cls-12" d="M25.41,12l-.06.16c.53.23.91-.06.93-.49l-.17,0C26.13,12,25.87,12.21,25.41,12Z"/><path class="cls-6" d="M25.11,11.67l-.17,0a.79.79,0,0,0,.41.46l.06-.16A.57.57,0,0,1,25.11,11.67Z"/><path class="cls-8" d="M25.13,11.38,25,11.27a.52.52,0,0,0-.06.44l.17,0A.34.34,0,0,1,25.13,11.38Z"/><path class="cls-8" d="M23.09,11.41a.59.59,0,0,0,.35.27.43.43,0,0,1,0,.28l.17,0c0-.23,0-.48-.19-.49s-.23-.19-.29-.26a.13.13,0,0,0-.06-.05l-.09.15S23.05,11.37,23.09,11.41Z"/><path class="cls-35" d="M23,11.35l.09-.15a1.88,1.88,0,0,0-1.19.21l.13.11A1.88,1.88,0,0,1,23,11.35Z"/><path class="cls-12" d="M23.48,12a.55.55,0,0,1-.06.26.39.39,0,0,1-.24.16s-.13-.17-.24-.24a.75.75,0,0,0-.42-.14v.17a.55.55,0,0,1,.33.11c.1.07.18.24.3.26a.45.45,0,0,0,.39-.19.62.62,0,0,0,.12-.35Z"/><path class="cls-19" d="M22.19,12.11l0,.16a.47.47,0,0,1,.28-.1V12A.51.51,0,0,0,22.19,12.11Z"/><path class="cls-12" d="M22,12.19h0l-.06.15.09,0a.36.36,0,0,0,.22-.09l-.06-.16C22.1,12.17,22.07,12.19,22,12.19Z"/><path class="cls-6" d="M21.7,11.82c0,.21.07.47.24.53l.06-.16c-.11,0-.14-.28-.13-.36Z"/><path class="cls-8" d="M22.05,11.52l-.12-.12a.56.56,0,0,0-.23.42h.17A.37.37,0,0,1,22.05,11.52Z"/><path class="cls-35" d="M25.18,13.33a.6.6,0,0,0,.68,0,.34.34,0,0,1,.19,0l.08-.15a.44.44,0,0,0-.36,0,.44.44,0,0,1-.49,0,.6.6,0,0,0-.8.17l.15.08A.44.44,0,0,1,25.18,13.33Z"/><path class="cls-8" d="M26.2,13.52s0,.08,0,.11l.16,0a.59.59,0,0,0,0-.13c0-.11-.11-.22-.24-.29l-.08.15A.33.33,0,0,1,26.2,13.52Z"/><path class="cls-12" d="M25.54,14.19c.12,0,.26,0,.39,0s.35-.09.42-.49l-.16,0c-.06.29-.22.33-.3.35a2.08,2.08,0,0,0-.41,0c-.21.07-.44.24-.56.25s-.09,0-.17-.09l-.12.12a.42.42,0,0,0,.28.14C25.09,14.46,25.34,14.25,25.54,14.19Z"/><path class="cls-6" d="M24.5,13.8h-.17a.87.87,0,0,0,.31.51l.11-.12A.69.69,0,0,1,24.5,13.8Z"/><path class="cls-8" d="M24.63,13.45l-.14-.09a.8.8,0,0,0-.16.45h.17A.63.63,0,0,1,24.63,13.45Z"/><path class="cls-8" d="M30.38,13.23a1.78,1.78,0,0,1,.42.74.49.49,0,0,1,0,.13l.17,0a1,1,0,0,0,0-.19,2,2,0,0,0-.48-.84L30.35,13l-.08.15Z"/><path class="cls-6" d="M30.81,14.1a1.65,1.65,0,0,1-.08.47l.06.18c.1,0,.17-.38.19-.63Z"/><path class="cls-21" d="M30.73,14.57a2,2,0,0,1-.3-.44c-.15-.26-.3-.53-.51-.54v.16c.14,0,.31.36.44.58.25.43.38.44.45.42Z"/><path class="cls-18" d="M29.84,13.58c-.28,0-.44.22-.49.23H29.3l-.06.15.12,0c.17,0,.23-.23.48-.23h.07v-.16Z"/><path class="cls-8" d="M29.25,14l.05-.16c-.05,0-.06,0-.09-.12a1.17,1.17,0,0,1,.15-.57L29.21,13a1.21,1.21,0,0,0-.16.71C29.09,13.86,29.13,13.94,29.25,14Z"/><path class="cls-35" d="M29.29,15.51a.42.42,0,0,0-.24.12l.11.13a.52.52,0,0,1,.15-.09,1.5,1.5,0,0,1,.55.07l.05-.16A1.58,1.58,0,0,0,29.29,15.51Z"/><path class="cls-8" d="M30.26,16.57c0-.33.08-.51-.06-.8a.48.48,0,0,0-.29-.19l-.05.16a.41.41,0,0,1,.18.09c.13.18.05.49.05.74a.84.84,0,0,0,.14.43.86.86,0,0,1,0,.13l.17,0a.46.46,0,0,0-.06-.25A.9.9,0,0,1,30.26,16.57Z"/><path class="cls-12" d="M29.93,17.17l-.09.15a.88.88,0,0,0,.43.1c.15,0,.16-.12.16-.26l-.17,0v.12A.63.63,0,0,1,29.93,17.17Z"/><path class="cls-18" d="M29.72,16.75a1.06,1.06,0,0,0-.4-.44l-.11.12a.94.94,0,0,1,.37.42c.07.17.16.42.27.47l.08-.15A1.83,1.83,0,0,1,29.72,16.75Z"/><path class="cls-6" d="M29.11,16.06l-.13.11a1.82,1.82,0,0,0,.24.27l.1-.13A2.39,2.39,0,0,1,29.11,16.06Z"/><path class="cls-63" d="M29,16s0-.12.13-.21l-.12-.12a.42.42,0,0,0-.17.39.64.64,0,0,0,.11.16l.12-.12Z"/><path class="cls-35" d="M31.91,16.46a.31.31,0,0,1,.22.11l.12-.12a.43.43,0,0,0-.4-.15c-.07,0-.14.15-.18.3l.15.08A.81.81,0,0,1,31.91,16.46Z"/><path class="cls-8" d="M32.41,17.27l.17,0a1.19,1.19,0,0,0-.33-.85l-.12.12A1,1,0,0,1,32.41,17.27Z"/><path class="cls-12" d="M32.33,17.56a.54.54,0,0,1-.38.06l-.09.14a.61.61,0,0,0,.57-.07.47.47,0,0,0,.15-.39l-.17,0C32.42,17.39,32.4,17.52,32.33,17.56Z"/><path class="cls-63" d="M31.86,17.76h0l.09-.15c-.09-.06-.17-.3-.16-.79a1,1,0,0,1,0-.15l-.15-.08a1.56,1.56,0,0,0-.05.22C31.61,17.18,31.65,17.62,31.86,17.76Z"/><path class="cls-35" d="M26.49,15.24a1.42,1.42,0,0,0-.71.18,1.82,1.82,0,0,1-.31.31l-.17.1.09.14.17-.1a1.63,1.63,0,0,0,.35-.34,1.45,1.45,0,0,1,.58-.12,1.57,1.57,0,0,1,.71.19l.06-.16A1.88,1.88,0,0,0,26.49,15.24Z"/><path class="cls-8" d="M27.78,15.82c0-.11-.26-.26-.53-.38l-.05.16a2.09,2.09,0,0,1,.41.23.64.64,0,0,1,0,.07l.15.07A.37.37,0,0,0,27.78,15.82Z"/><path class="cls-12" d="M27.75,16l-.16-.07a.39.39,0,0,1-.06.11l.08.16A.66.66,0,0,0,27.75,16Z"/><path class="cls-12" d="M27.31,16.09a2,2,0,0,0-1.15.11l-.09.05.06.16a.67.67,0,0,0,.11-.07,1.91,1.91,0,0,1,1-.08h.15l0-.16Z"/><path class="cls-19" d="M25.41,16.64a.47.47,0,0,1-.29.17l-.06,0-.09.14a.3.3,0,0,0,.15.05.62.62,0,0,0,.41-.23,2.49,2.49,0,0,1,.6-.35l-.06-.15A2,2,0,0,0,25.41,16.64Z"/><path class="cls-6" d="M24.81,16.48a.46.46,0,0,0,.17.45l.08-.14a.38.38,0,0,1-.09-.28Z"/><path class="cls-8" d="M25.39,16l-.09-.14c-.43.24-.47.47-.49.65l.16,0C25,16.4,25,16.2,25.39,16Z"/><path class="cls-35" d="M22.81,15.41a.25.25,0,0,1,.29-.09l.08-.15a.43.43,0,0,0-.5.14,2.51,2.51,0,0,0-.19.24l.15.09Z"/><path class="cls-8" d="M23.17,15.17l-.07.15a.22.22,0,0,1,.15.2l.16-.07A.36.36,0,0,0,23.17,15.17Z"/><path class="cls-12" d="M23.41,15.77l-.17,0a.46.46,0,0,1,0,.16l.08.16C23.35,16,23.39,15.88,23.41,15.77Z"/><path class="cls-6" d="M23.2,15.9h-.09l0,.19a.21.21,0,0,1,.15,0h.05Z"/><path class="cls-62" d="M23.08,16.1l0-.19A.26.26,0,0,0,23,16l.06.19A.15.15,0,0,1,23.08,16.1Z"/><path class="cls-12" d="M22.51,16.74l-.08.15a.25.25,0,0,0,.18.06l0-.17A.12.12,0,0,1,22.51,16.74Z"/><path class="cls-6" d="M22.43,16.9h0l.08-.16a.38.38,0,0,1-.1-.23l-.16,0A.5.5,0,0,0,22.43,16.9Z"/><path class="cls-8" d="M22.59,15.71a.5.5,0,0,1,.05-.07l-.14-.1a.64.64,0,0,0-.06.1,1.88,1.88,0,0,0-.19.91l.16,0A1.87,1.87,0,0,1,22.59,15.71Z"/><path class="cls-35" d="M19.94,12.67c-.32,0-.73.45-1,.58a5.86,5.86,0,0,1-.58.1.83.83,0,0,0-.51.37l.14.1a.67.67,0,0,1,.4-.31A2.89,2.89,0,0,0,19,13.4c.22-.09.67-.55.9-.56l.08-.16Z"/><path class="cls-8" d="M20,12.68l-.07.16a1.17,1.17,0,0,1,.1.42h.16C20.17,13,20.11,12.74,20,12.68Z"/><path class="cls-19" d="M20.11,13.64,20,13.55c-.08.06-.72.28-.73.29l.1.14A3.43,3.43,0,0,0,20.11,13.64Z"/><path class="cls-12" d="M18.61,14.13l.1.14a2.07,2.07,0,0,1,.62-.29l-.1-.14A2.19,2.19,0,0,0,18.61,14.13Z"/><path class="cls-6" d="M18.1,15.3c0-.08-.1-.34-.11-.37a2.92,2.92,0,0,1-.14-.74l-.17,0a3.13,3.13,0,0,0,.18.92,2.68,2.68,0,0,1,.07.27,1,1,0,0,0,.18.38l.12-.11A1,1,0,0,1,18.1,15.3Z"/><path class="cls-8" d="M17.85,14.13a1.2,1.2,0,0,1,.15-.31l-.14-.1a1.09,1.09,0,0,0-.17.38.11.11,0,0,0,0,.05l.17,0Z"/><path class="cls-35" d="M21.33,17.91h.08l.05-.16-.13,0a2.29,2.29,0,0,0-.83.39l.1.14A1.92,1.92,0,0,1,21.33,17.91Z"/><path class="cls-8" d="M21.57,18a.62.62,0,0,1,0,.29l.16.05a.61.61,0,0,0,0-.43.43.43,0,0,0-.25-.18l-.06.16A.27.27,0,0,1,21.57,18Z"/><path class="cls-102" d="M21.71,18.37l-.16-.05a.77.77,0,0,1-.55.55l.06.15A.9.9,0,0,0,21.71,18.37Z"/><path class="cls-12" d="M21,18.87a2,2,0,0,1-.5.08c-.09,0-.19,0-.2-.05l-.11.13a.49.49,0,0,0,.31.08,2.61,2.61,0,0,0,.59-.09L21,18.87Z"/><path class="cls-6" d="M20.18,19l.1-.13h0a.51.51,0,0,1,0-.3l-.16,0C20.1,18.67,20.07,19,20.18,19Z"/><path class="cls-8" d="M20.6,18.27l-.1-.14a1.09,1.09,0,0,0-.34.42l.16,0A1.08,1.08,0,0,1,20.6,18.27Z"/><path class="cls-35" d="M17.37,17.58l.11.12a1.58,1.58,0,0,1,1.44-.38l0-.17A1.76,1.76,0,0,0,17.37,17.58Z"/><path class="cls-8" d="M19.19,17.21a1.55,1.55,0,0,0-.23-.06l0,.17.21.05a.3.3,0,0,1,.18.23l.16-.06A.47.47,0,0,0,19.19,17.21Z"/><path class="cls-6" d="M19.31,17.6a.64.64,0,0,1,0,.28l.17,0a1,1,0,0,0-.05-.38Z"/><path class="cls-102" d="M19.52,17.92l-.17,0a.26.26,0,0,1-.06.18l.08.15A.39.39,0,0,0,19.52,17.92Z"/><path class="cls-12" d="M19.29,18.06h0c-.18,0-.68-.22-.87-.24V18a6.87,6.87,0,0,0,.88.24l.08,0Z"/><path class="cls-102" d="M18,17.88l.07.15a.41.41,0,0,1,.32,0v-.17A.51.51,0,0,0,18,17.88Z"/><path class="cls-6" d="M18,17.88a1.6,1.6,0,0,0-.35.32c-.16.19-.27.26-.33.26v.17c.17,0,.35-.2.44-.29a1.52,1.52,0,0,1,.31-.31Z"/><path class="cls-12" d="M17.26,18.42l-.11.13a.41.41,0,0,0,.19.08v-.17h0Z"/><path class="cls-18" d="M17.16,18.55l.1-.13a.31.31,0,0,1-.09-.11l-.16.05A.41.41,0,0,0,17.16,18.55Z"/><path class="cls-8" d="M17,18.23a.59.59,0,0,0,0,.14l.16-.06a.22.22,0,0,1,0-.08.82.82,0,0,1,.33-.53l-.12-.12A.93.93,0,0,0,17,18.23Z"/><path class="cls-35" d="M15.88,17.74a.06.06,0,0,1,.06,0l.06-.16a.23.23,0,0,0-.12,0,1.15,1.15,0,0,0-.74.39l.13.11A1,1,0,0,1,15.88,17.74Z"/><path class="cls-8" d="M16,17.59l-.06.16c.07,0,.05.15,0,.21l.17,0A.31.31,0,0,0,16,17.59Z"/><path class="cls-6" d="M16,18a1,1,0,0,1-.14.33l.15.08a1.26,1.26,0,0,0,.16-.43Z"/><path class="cls-12" d="M15.61,18.6a.32.32,0,0,1-.19.09.33.33,0,0,1-.13-.08l-.12.13a.88.88,0,0,0,.21.12.47.47,0,0,0,.34-.13,1.61,1.61,0,0,0,.28-.36l-.16-.08A1,1,0,0,1,15.61,18.6Z"/><path class="cls-6" d="M15.15,18.41l-.16,0a.51.51,0,0,0,.19.29l.11-.13A.33.33,0,0,1,15.15,18.41Z"/><path class="cls-8" d="M15.14,18.37a.52.52,0,0,1,.13-.3L15.14,18a.64.64,0,0,0-.16.41.28.28,0,0,0,0,.09l.16-.05S15.14,18.38,15.14,18.37Z"/><path class="cls-8" d="M12.93,19.1l-.06.16a.24.24,0,0,1,.18.2l.16-.07A.43.43,0,0,0,12.93,19.1Z"/><path class="cls-6" d="M13.05,19.45a.54.54,0,0,1,0,.22l.17,0a.79.79,0,0,0,0-.31Z"/><path class="cls-12" d="M13,19.79a.5.5,0,0,1-.21.05.5.5,0,0,0-.3.16c-.08.07-.25.21-.34.13l-.12.12c.14.12.33.07.51-.07s.13-.15.27-.17.31,0,.35-.17a1,1,0,0,0,0-.14l-.17,0A1,1,0,0,0,13,19.79Z"/><path class="cls-6" d="M12.06,20.25l.11-.12a.35.35,0,0,1-.07-.23l-.17,0A.43.43,0,0,0,12.06,20.25Z"/><path class="cls-8" d="M12.39,19.46l-.12-.13-.12.1a.69.69,0,0,0-.22.46h.17a.53.53,0,0,1,.17-.35Z"/><path class="cls-35" d="M12.76,21.37l.06-.17a1.4,1.4,0,0,0-1.25.48l.15.08A1.21,1.21,0,0,1,12.76,21.37Z"/><path class="cls-8" d="M13.17,21.43a.38.38,0,0,1,0,.26l.14.08c.11-.2,0-.47-.05-.49a2,2,0,0,0-.45-.08l-.05.17A1.68,1.68,0,0,1,13.17,21.43Z"/><path class="cls-12" d="M13.17,21.69h0s-.08.14-.31.13a.68.68,0,0,0-.49.16l.12.12a.52.52,0,0,1,.38-.11c.27,0,.4-.1.46-.24Z"/><path class="cls-6" d="M12.21,22.24a.28.28,0,0,1-.12.15l.1.13a.41.41,0,0,0,.19-.24.45.45,0,0,1,.1-.18L12.36,22A.56.56,0,0,0,12.21,22.24Z"/><path class="cls-62" d="M12.09,22.39a.52.52,0,0,1-.23,0v.17a.61.61,0,0,0,.35-.07Z"/><path class="cls-12" d="M11.82,22.41l-.09-.07-.11.13.09.07a.25.25,0,0,0,.15.05v-.17Z"/><path class="cls-6" d="M11.66,22.28a.49.49,0,0,1,0-.21h-.17a.59.59,0,0,0,.07.29s.06.07.11.11l.1-.13Z"/><path class="cls-8" d="M11.72,21.76l-.14-.09a.7.7,0,0,0-.13.4h.17A.54.54,0,0,1,11.72,21.76Z"/><path class="cls-35" d="M14.12,22.8l.05-.16a1.38,1.38,0,0,0-1.24.78l.13.1A1.29,1.29,0,0,1,14.12,22.8Z"/><path class="cls-8" d="M14.42,22.8a.26.26,0,0,0-.25-.16l-.05.16c.09,0,.13,0,.13,0a.53.53,0,0,1,0,.18h.17A.79.79,0,0,0,14.42,22.8Z"/><path class="cls-6" d="M14.26,23a1.29,1.29,0,0,1-.14.36l.14.08a1.19,1.19,0,0,0,.17-.45Z"/><path class="cls-62" d="M14.12,23.38a2.15,2.15,0,0,1-.23.28l.08.14a2,2,0,0,0,.3-.34Z"/><path class="cls-19" d="M13.89,23.66c-.14.07-.28,0-.55.12s-.24.29-.3.33a.44.44,0,0,1-.22.07h0v.16a.54.54,0,0,0,.32-.09c.11-.07.18-.26.29-.32s.37,0,.55-.13Z"/><path class="cls-12" d="M12.77,24.17l-.11.14.15,0v-.17Z"/><path class="cls-8" d="M13.07,23.51l-.14-.09-.22.35h0l.15.06Z"/><path class="cls-6" d="M12.64,24.3h0l.11-.14h0a.8.8,0,0,1,.1-.33l-.16-.06C12.65,23.88,12.54,24.2,12.64,24.3Z"/><path class="cls-35" d="M11.72,25.72c.09,0,.15,0,.28.09l.09-.14a.48.48,0,0,0-.37-.13,1.17,1.17,0,0,0-.45.24l.11.13A1.09,1.09,0,0,1,11.72,25.72Z"/><path class="cls-8" d="M12.09,25.67l-.1.14a1,1,0,0,1,.21.2v0l.16-.07A.74.74,0,0,0,12.09,25.67Z"/><path class="cls-6" d="M12.36,26,12.2,26a.24.24,0,0,1,0,.17l.13.11A.42.42,0,0,0,12.36,26Z"/><path class="cls-19" d="M12.19,26.21c0,.05-.07.08-.16.11a1.27,1.27,0,0,0-.41.27.44.44,0,0,1-.26.08v.16a.56.56,0,0,0,.36-.1,1.72,1.72,0,0,1,.37-.25.48.48,0,0,0,.25-.17Z"/><path class="cls-12" d="M11.21,26.59l-.09.15a.45.45,0,0,0,.24.09v-.16A.37.37,0,0,1,11.21,26.59Z"/><path class="cls-6" d="M11,26.67l.1.07.08-.15-.06,0a.8.8,0,0,1-.06-.17l-.16,0A.64.64,0,0,0,11,26.67Z"/><path class="cls-8" d="M11.1,26.17a1.47,1.47,0,0,1,.28-.26l-.11-.13a1.59,1.59,0,0,0-.32.31.55.55,0,0,0,0,.32l.16,0A.46.46,0,0,1,11.1,26.17Z"/><path class="cls-35" d="M16.68,23.16a.5.5,0,0,1,.38-.15h.13l.08.09L17.4,23l-.1-.11a.45.45,0,0,0-.24-.05.64.64,0,0,0-.51.21,1.73,1.73,0,0,1-.31.24l.12.13A2.12,2.12,0,0,0,16.68,23.16Z"/><path class="cls-8" d="M17.27,23.11a.65.65,0,0,1,.22.35.13.13,0,0,1,0,.06l.15.07c.1-.22-.09-.45-.23-.6Z"/><path class="cls-19" d="M17.64,23.58l-.16-.06,0,.05-.12,0,.07.16a.3.3,0,0,0,.16-.06A.44.44,0,0,0,17.64,23.58Z"/><path class="cls-62" d="M16.65,23.78l.07.16a1.6,1.6,0,0,1,.68-.19l-.07-.16A1.48,1.48,0,0,0,16.65,23.78Z"/><path class="cls-19" d="M16.73,23.93l-.08-.15c-.21.13-.4.36-.57.46a2,2,0,0,1-.51.26l0,.17a2.44,2.44,0,0,0,.56-.28C16.4,24.24,16.53,24.06,16.73,23.93Z"/><path class="cls-12" d="M15.46,24.46l-.09.14a.34.34,0,0,0,.24.06l0-.16A.21.21,0,0,1,15.46,24.46Z"/><path class="cls-6" d="M15.37,24.6l.09-.14c-.1-.06-.22-.31,0-.67l-.13-.11C15,24.16,15.22,24.5,15.37,24.6Z"/><path class="cls-8" d="M15.59,23.66a1.43,1.43,0,0,0,.77-.24l-.11-.13a1.19,1.19,0,0,1-.68.21.36.36,0,0,0-.26.19l.14.1A.22.22,0,0,1,15.59,23.66Z"/><path class="cls-35" d="M13.69,27.11l.05-.16a1.29,1.29,0,0,0-.89.21l.11.13A1.16,1.16,0,0,1,13.69,27.11Z"/><path class="cls-8" d="M13.74,27l-.05.16a.2.2,0,0,1,.16.2l.17,0A.37.37,0,0,0,13.74,27Z"/><path class="cls-6" d="M13.85,27.31a.27.27,0,0,1,0,.18l.14.1a.46.46,0,0,0,.06-.33Z"/><path class="cls-12" d="M12.85,27.69l-.09.14a1,1,0,0,0,1.2-.25l-.15-.09C13.6,27.85,13,27.78,12.85,27.69Z"/><path class="cls-6" d="M12.63,27.54a.28.28,0,0,0,.13.3l.09-.15,0,0a.18.18,0,0,1,0-.11Z"/><path class="cls-8" d="M12.81,27.5a.31.31,0,0,1,.15-.21l-.1-.14a.49.49,0,0,0-.21.3.36.36,0,0,0,0,.1h.17A.11.11,0,0,1,12.81,27.5Z"/><path class="cls-35" d="M8.35,27.39a6.23,6.23,0,0,1,.82-.29h.11L9.35,27a.34.34,0,0,0-.18,0,4.65,4.65,0,0,0-.92.33.34.34,0,0,0-.1.2l.16.07A.29.29,0,0,1,8.35,27.39Z"/><path class="cls-8" d="M9.35,27l-.07.15s.09.08.11.26a.34.34,0,0,1-.07.19l.14.09a.47.47,0,0,0,.09-.3C9.53,27.1,9.44,27,9.35,27Z"/><path class="cls-12" d="M9.47,27.64l-.15-.08a.83.83,0,0,1-.24.25l.09.15A1.49,1.49,0,0,0,9.47,27.64Z"/><path class="cls-62" d="M8.62,28.06v.17A2,2,0,0,0,9.18,28l-.1-.14A2.17,2.17,0,0,1,8.62,28.06Z"/><path class="cls-19" d="M8.62,28.06a.45.45,0,0,1-.16,0v.17l.18,0Z"/><path class="cls-12" d="M8.37,28.06l-.11.13a.31.31,0,0,0,.2.07v-.17A.13.13,0,0,1,8.37,28.06Z"/><path class="cls-6" d="M8.14,27.82a.76.76,0,0,0,.1.34l0,0,.1-.13a.77.77,0,0,1-.06-.27Z"/><path class="cls-8" d="M8.31,27.52l-.16-.06a1.5,1.5,0,0,0,0,.37l.17,0A1.22,1.22,0,0,1,8.31,27.52Z"/><path class="cls-35" d="M12.11,28.86l.08-.15a1.1,1.1,0,0,1-.27-.23.16.16,0,0,0-.11,0,.54.54,0,0,0-.43.26l.14.1a.39.39,0,0,1,.29-.2A1.14,1.14,0,0,0,12.11,28.86Z"/><path class="cls-8" d="M12.63,28.93l-.44-.22-.08.15.44.23s0,0,0,0l.17,0A.24.24,0,0,0,12.63,28.93Z"/><path class="cls-6" d="M12.59,29.13a.2.2,0,0,1-.06.17l.13.11a.43.43,0,0,0,.1-.27Z"/><path class="cls-62" d="M12.53,29.3c-.11.13-.49.1-.54.1v.16s.52.06.68-.16Z"/><path class="cls-19" d="M11.65,29.31l-.07.15a1.2,1.2,0,0,0,.41.11V29.4A1,1,0,0,1,11.65,29.31Z"/><path class="cls-12" d="M11.44,29.37a.56.56,0,0,0,.15.1l.06-.16-.08,0Z"/><path class="cls-19" d="M11.5,29.17l-.15.09a.53.53,0,0,0,.1.12l.12-.12A.18.18,0,0,1,11.5,29.17Z"/><path class="cls-6" d="M11.47,29H11.3a.48.48,0,0,0,.06.24l.14-.1A.27.27,0,0,1,11.47,29Z"/><path class="cls-8" d="M11.52,28.81l-.14-.1a.72.72,0,0,0-.08.33l.17,0A.5.5,0,0,1,11.52,28.81Z"/><path class="cls-35" d="M15.45,28.18c-.09-.05-.16-.12-.26-.12a.35.35,0,0,0-.32.24l.15.09a.24.24,0,0,1,.17-.17,1,1,0,0,1,.18.11.48.48,0,0,0,.26.06l0-.17A.38.38,0,0,1,15.45,28.18Z"/><path class="cls-8" d="M15.85,28.21h-.19l0,.17.22,0c.1,0,.16,0,.23.25a.92.92,0,0,1,0,.16l.16.07a.62.62,0,0,0,0-.27C16.18,28.39,16.1,28.21,15.85,28.21Z"/><path class="cls-6" d="M16.25,28.84l-.16-.06a.64.64,0,0,1,0,.07l.09.15C16.22,29,16.23,28.91,16.25,28.84Z"/><path class="cls-19" d="M16.07,28.85c-.08,0-.13,0-.23,0a2.2,2.2,0,0,0-.54.12l0,.16a2.46,2.46,0,0,1,.51-.11c.11,0,.24.06.33,0Z"/><path class="cls-12" d="M15.11,28.91l-.1.14a.39.39,0,0,0,.33.05l0-.16A.24.24,0,0,1,15.11,28.91Z"/><path class="cls-19" d="M15,28.82l-.14.09a.51.51,0,0,0,.14.15l.09-.15A.26.26,0,0,1,15,28.82Z"/><path class="cls-6" d="M15,28.7l-.16.06a.56.56,0,0,0,.07.16l.13-.1A.42.42,0,0,1,15,28.7Z"/><path class="cls-8" d="M15,28.39l-.15-.1a.7.7,0,0,0,0,.47L15,28.7A.47.47,0,0,1,15,28.39Z"/><path class="cls-35" d="M14.91,20.18a1.56,1.56,0,0,1,.6-.22,1.78,1.78,0,0,1,.33.05l.05-.16a2.16,2.16,0,0,0-.38-.06,1.44,1.44,0,0,0-.63.22.58.58,0,0,0-.24.19l.14.1A.38.38,0,0,1,14.91,20.18Z"/><path class="cls-8" d="M15.89,19.85l-.05.16c.09,0,.26.07.32.1l.13-.11C16.26,19.94,16,19.89,15.89,19.85Z"/><path class="cls-6" d="M16.29,20l-.13.12a.23.23,0,0,1,0,.18l.16.07A.42.42,0,0,0,16.29,20Z"/><path class="cls-19" d="M16.15,20.29a.31.31,0,0,1-.16.16c-.11.05-.67.43-.8.5l.08.15c.11-.05.71-.46.79-.5a.44.44,0,0,0,.25-.25Z"/><path class="cls-12" d="M15.11,21v.16a.33.33,0,0,0,.15,0L15.19,21Z"/><path class="cls-19" d="M14.77,21l0,.17a1,1,0,0,0,.38,0l0-.16A1,1,0,0,1,14.77,21Z"/><path class="cls-12" d="M14.69,20.94l-.11.13a.43.43,0,0,0,.18.09V21A.18.18,0,0,1,14.69,20.94Z"/><path class="cls-6" d="M14.58,20.77l-.17,0a.45.45,0,0,0,.18.28l.1-.13A.36.36,0,0,1,14.58,20.77Z"/><path class="cls-8" d="M14.58,20.71a1.28,1.28,0,0,1,.2-.41l-.13-.11a1.66,1.66,0,0,0-.23.48.53.53,0,0,0,0,.13l.17,0Z"/><path class="cls-35" d="M29.38,18.5c-.3,0-.5-.18-.75-.17a1.84,1.84,0,0,0-.36.14l.1.13.28-.11c.14,0,.42.2.74.17a1.89,1.89,0,0,1,.37.1l.08-.15A1.45,1.45,0,0,0,29.38,18.5Z"/><path class="cls-8" d="M30.29,19a.76.76,0,0,0-.46-.36l-.07.15c.17.07.34.17.37.26a.31.31,0,0,1,0,.23l.15.07A.48.48,0,0,0,30.29,19Z"/><path class="cls-12" d="M30.11,19.25a.44.44,0,0,1-.13.19.63.63,0,0,1-.26-.05,3,3,0,0,0-1-.33v.17a2.66,2.66,0,0,1,.91.31.74.74,0,0,0,.41.06.54.54,0,0,0,.21-.28Z"/><path class="cls-103" d="M28.73,19.06c-.14,0-.36.13-.46.14v.17c.14,0,.36-.13.48-.14v-.17Z"/><path class="cls-12" d="M28.27,19.2a.38.38,0,0,1-.15-.07l-.11.13a.56.56,0,0,0,.26.11V19.2Z"/><path class="cls-6" d="M28,19.27l.1-.14c-.06,0-.16-.11-.16-.17l-.17,0C27.8,19.12,27.94,19.21,28,19.27Z"/><path class="cls-8" d="M28.05,18.76l.32-.16-.1-.14-.3.15a.43.43,0,0,0-.18.38L28,19A.28.28,0,0,1,28.05,18.76Z"/><path class="cls-35" d="M31.67,19.41a1.2,1.2,0,0,0-.41.31,2.45,2.45,0,0,0-.5.66,2.15,2.15,0,0,0-.14.54h.17a2,2,0,0,1,.16-.57,3,3,0,0,1,.44-.53.93.93,0,0,1,.31-.25,1,1,0,0,1,.39.13l.11-.14A1.26,1.26,0,0,0,31.67,19.41Z"/><path class="cls-8" d="M32.47,19.74a1.56,1.56,0,0,0-.28-.17l-.1.14a1.39,1.39,0,0,1,.28.16s0,0,0,.12l.15.07A.25.25,0,0,0,32.47,19.74Z"/><path class="cls-12" d="M32.38,20a.52.52,0,0,1-.2.26l0,.16a.62.62,0,0,0,.32-.35Z"/><path class="cls-103" d="M32.07,20.45l.16,0,0-.16h0l-.15,0a.62.62,0,0,0-.18,0l.07.16A.42.42,0,0,1,32.07,20.45Z"/><path class="cls-12" d="M31.63,20.54a3.91,3.91,0,0,1-.51.59.35.35,0,0,1-.22,0l-.09.14a.47.47,0,0,0,.38,0,2.67,2.67,0,0,0,.57-.64.56.56,0,0,1,.16-.15l-.07-.16A.73.73,0,0,0,31.63,20.54Z"/><path class="cls-6" d="M30.82,21.29l.08-.14a.2.2,0,0,1-.11-.22l-.17,0A.36.36,0,0,0,30.82,21.29Z"/><path class="cls-35" d="M34,19.15a.33.33,0,0,1,.28-.42,1.81,1.81,0,0,1,.63.09,3.61,3.61,0,0,1,.54.4l.23.12.11-.13a1.83,1.83,0,0,1-.24-.13,3.3,3.3,0,0,0-.57-.41,1.89,1.89,0,0,0-.72-.11c-.48.06-.51.64-.36.74l.12-.15Z"/><path class="cls-8" d="M36,20a2,2,0,0,1,.09.4l.17,0a1.89,1.89,0,0,0-.12-.54,1.54,1.54,0,0,0-.24-.54.48.48,0,0,0-.16-.12l-.11.13a.39.39,0,0,1,.14.1A1.49,1.49,0,0,1,36,20Z"/><path class="cls-63" d="M36.09,20.39a.31.31,0,0,1-.05.2l.09.15a.44.44,0,0,0,.13-.34Z"/><path class="cls-62" d="M35.79,20.57l0,.16c.09,0,.32.06.38,0L36,20.59A.71.71,0,0,1,35.79,20.57Z"/><path class="cls-12" d="M35.39,20.36l-.12.11a.84.84,0,0,0,.49.26l0-.16A.77.77,0,0,1,35.39,20.36Z"/><path class="cls-62" d="M35.36,20.3a4.07,4.07,0,0,0-.38-.6,1.18,1.18,0,0,0-.25-.32l-.11.13a1.51,1.51,0,0,1,.27.36,3.13,3.13,0,0,1,.32.5.26.26,0,0,0,.07.11l.11-.12Z"/><path class="cls-12" d="M34,19.15l-.12.14,0,0a1.26,1.26,0,0,1,.74.21l.1-.14A1.3,1.3,0,0,0,34,19.15Z"/><path class="cls-35" d="M34.23,21.13c0-.1,0-.15,0-.23a.19.19,0,0,0-.19-.17,3.54,3.54,0,0,0-.9.14,1,1,0,0,0-.38.22l.14.1a.83.83,0,0,1,.29-.16A3.33,3.33,0,0,1,34,20.9s0,0,0,.11a.6.6,0,0,0,.13.46l.14-.11S34.25,21.31,34.23,21.13Z"/><path class="cls-8" d="M34.32,21.36l-.13.11.34.28.11-.13Z"/><path class="cls-63" d="M34.64,21.62l-.11.13.13.11a.34.34,0,0,1,0,.1l.15.09c.06-.12.08-.23,0-.29Z"/><path class="cls-62" d="M34.77,22,34.62,22a.54.54,0,0,1-.22.23l0,.16A.62.62,0,0,0,34.77,22Z"/><path class="cls-12" d="M34.4,22.19h0a2.29,2.29,0,0,1-.62-.18l0,.17a1.8,1.8,0,0,0,.73.17Z"/><path class="cls-62" d="M33.76,22a.71.71,0,0,1-.15-.15,1.09,1.09,0,0,0-.19-.18l-.09.14c.1.07.19.23.34.33l0,0,0-.17Z"/><path class="cls-12" d="M33.21,21.63c-.12,0-.36.05-.39,0a.35.35,0,0,1-.17-.1l-.16.07a.49.49,0,0,0,.28.19,2.32,2.32,0,0,0,.44,0,.23.23,0,0,1,.13,0l.08-.15A.43.43,0,0,0,33.21,21.63Z"/><path class="cls-8" d="M32.63,21.55s0,0,0-.06a1.31,1.31,0,0,1,.24-.3l-.13-.11a2.24,2.24,0,0,0-.26.32.21.21,0,0,0,0,.24l.16-.07Z"/><path class="cls-35" d="M36.3,22.59c.06-.09.15-.29.24-.29s.18.15.32.46l.16-.05c-.07-.15-.22-.59-.48-.58s-.29.22-.37.34-.23.19-.3.37l.16.05A1.62,1.62,0,0,1,36.3,22.59Z"/><path class="cls-8" d="M37,22.7l-.16.06c0,.11.1.21.12.27l.16-.05A2,2,0,0,0,37,22.7Z"/><path class="cls-6" d="M37.14,23,37,23a.28.28,0,0,1,0,.13l.15.06A.43.43,0,0,0,37.14,23Z"/><path class="cls-12" d="M37.14,23.22,37,23.16a.37.37,0,0,1,0,.11l.13.11A1.19,1.19,0,0,0,37.14,23.22Z"/><path class="cls-12" d="M36.73,23.36a1.46,1.46,0,0,1-.63-.17l-.1.13a1.59,1.59,0,0,0,.73.21.38.38,0,0,0,.19,0l-.06-.15A.31.31,0,0,1,36.73,23.36Z"/><path class="cls-6" d="M36,23.13l-.15.08a.38.38,0,0,0,.13.12l.1-.14A.28.28,0,0,1,36,23.13Z"/><path class="cls-8" d="M36,22.89l-.16-.06a.5.5,0,0,0,0,.38l.15-.08A.33.33,0,0,1,36,22.89Z"/><path class="cls-35" d="M38.39,24.12c-.24,0-.65,0-.74,0a.4.4,0,0,0-.34.11l.12.12a.22.22,0,0,1,.2-.06c.15,0,.45,0,.77,0a1.94,1.94,0,0,1,.62.09l.06-.16A2.3,2.3,0,0,0,38.39,24.12Z"/><path class="cls-8" d="M39.08,24.22l-.06.16c.1,0,.19.07.19.13a1.32,1.32,0,0,1,0,.27l.16,0a2.41,2.41,0,0,0,0-.33C39.37,24.35,39.24,24.27,39.08,24.22Z"/><path class="cls-6" d="M39.2,24.78a1.39,1.39,0,0,1-.07.34l.11.13c.07-.05.1-.25.12-.43Z"/><path class="cls-12" d="M39.25,25.24l-.12-.12a.52.52,0,0,1-.33.11l0,.17A.65.65,0,0,0,39.25,25.24Z"/><path class="cls-19" d="M38.7,25.19a1.11,1.11,0,0,0-.24-.16l-.06.16a.62.62,0,0,1,.18.13.38.38,0,0,0,.24.08l0-.17A.13.13,0,0,1,38.7,25.19Z"/><path class="cls-12" d="M37.91,24.94H37.7a.49.49,0,0,1-.19,0L37.4,25a.72.72,0,0,0,.29.08h.22a1.12,1.12,0,0,1,.49.08l.06-.16A1.22,1.22,0,0,0,37.91,24.94Z"/><path class="cls-6" d="M37.4,24.81l-.15.08a.36.36,0,0,0,.16.14l.1-.13A.53.53,0,0,1,37.4,24.81Z"/><path class="cls-8" d="M37.44,24.35l-.13-.11a.53.53,0,0,0-.05.66l.14-.09A.36.36,0,0,1,37.44,24.35Z"/><path class="cls-35" d="M36.57,25.8a.47.47,0,0,0-.38.31.8.8,0,0,0,0,.26h.17c0-.09,0-.17,0-.21a.4.4,0,0,1,.22-.18.91.91,0,0,1,.22.2l.13-.1C36.81,25.93,36.66,25.8,36.57,25.8Z"/><path class="cls-8" d="M36.92,26.06l-.13.11a.65.65,0,0,1,.14.22l.16,0A1,1,0,0,0,36.92,26.06Z"/><path class="cls-6" d="M37.09,26.34l-.16.05v.12l.17,0A1.27,1.27,0,0,0,37.09,26.34Z"/><path class="cls-12" d="M36.89,26.61a1.37,1.37,0,0,1-.37,0l-.08.16a1.24,1.24,0,0,0,.54,0,.28.28,0,0,0,.12-.22l-.17,0C36.93,26.57,36.92,26.59,36.89,26.61Z"/><path class="cls-6" d="M36.44,26.62l-.11.14a.19.19,0,0,0,.12,0l.07-.16Z"/><path class="cls-8" d="M36.44,26.62a1.05,1.05,0,0,1-.07-.26H36.2a.91.91,0,0,0,.13.4l.11-.14Z"/><path class="cls-35" d="M39.88,28.23l.09.14c.17-.06.47-.12.57,0l.12-.12C40.48,28,40.05,28.15,39.88,28.23Z"/><path class="cls-8" d="M40.66,28.23l-.12.12a.5.5,0,0,1,.17.32l.17,0A.74.74,0,0,0,40.66,28.23Z"/><path class="cls-12" d="M40.87,28.83a.53.53,0,0,0,0-.13l-.17,0v.1h0l.13.11S40.87,28.85,40.87,28.83Z"/><path class="cls-19" d="M40.7,28.78l-.19.07,0,.17a1,1,0,0,0,.3-.13Z"/><path class="cls-12" d="M40.05,28.93l-.06,0-.1.14a.43.43,0,0,0,.13.05,1.55,1.55,0,0,0,.51-.08l0-.17A1.41,1.41,0,0,1,40.05,28.93Z"/><path class="cls-6" d="M39.63,28.57a.86.86,0,0,0,0,.22l.17-.05a.47.47,0,0,1,0-.16Z"/><path class="cls-8" d="M40,28.37l-.08-.15a.37.37,0,0,0-.26.36h.17C39.81,28.52,39.8,28.43,40,28.37Z"/><path class="cls-35" d="M37.56,27.91c-.16,0-.31.19-.44.29a.32.32,0,0,1-.23.09c-.15,0-.49-.16-.63-.16a.48.48,0,0,0-.3.15l.14.1c.07-.06.12-.09.17-.08s.37.14.6.16.55-.37.69-.38a.5.5,0,0,1,.22.09l.08-.15A.58.58,0,0,0,37.56,27.91Z"/><path class="cls-8" d="M38.09,28.31a.45.45,0,0,0-.23-.3l-.08.16.1.07a.13.13,0,0,1,0,.07v.15h.17Z"/><path class="cls-19" d="M38.06,28.64a.36.36,0,0,0,0-.18h-.17a.25.25,0,0,1,0,.1,0,0,0,0,1,0,0l.11.13A.19.19,0,0,0,38.06,28.64Z"/><path class="cls-6" d="M37.89,28.58c-.12.07-.22.08-.3.14a3.16,3.16,0,0,0-.28.32l.09.15c.13-.12.18-.25.29-.33A3.13,3.13,0,0,0,38,28.7Z"/><path class="cls-12" d="M36,28.91l-.1.14a2,2,0,0,0,1.27.23l0-.16A1.91,1.91,0,0,1,36,28.91Z"/><path class="cls-19" d="M37.31,29a.22.22,0,0,1-.15.08l0,.16a.41.41,0,0,0,.21-.1Z"/><path class="cls-6" d="M35.88,28.8l-.16.06a.47.47,0,0,0,.22.19l.09-.14C35.92,28.85,35.89,28.82,35.88,28.8Z"/><path class="cls-8" d="M36.1,28.38,36,28.27c-.18.16-.32.45-.25.6l.16-.07A.52.52,0,0,1,36.1,28.38Z"/><path class="cls-35" d="M33.67,25.32a1.14,1.14,0,0,0-.83.35l.15.07a1.16,1.16,0,0,1,.7-.25,1.42,1.42,0,0,1,.49.12l.07-.15A1.64,1.64,0,0,0,33.67,25.32Z"/><path class="cls-8" d="M34.43,25.54l-.19-.09-.06.16a.8.8,0,0,1,.16.08.75.75,0,0,1,.29.39l.16,0A.92.92,0,0,0,34.43,25.54Z"/><path class="cls-6" d="M34.63,26.08a.59.59,0,0,1,0,.19l.16.05a.67.67,0,0,0,0-.28Z"/><path class="cls-19" d="M34.8,26.31l-.16,0v0a.22.22,0,0,1-.05.12h0l.09.15A.32.32,0,0,0,34.8,26.31Z"/><path class="cls-12" d="M34.56,26.41h0a.79.79,0,0,1-.3-.06,1.54,1.54,0,0,1-.23-.14l-.08.15.24.14a1,1,0,0,0,.37.08l.13,0Z"/><path class="cls-103" d="M33.82,26.12h0l-.06.16h0a.56.56,0,0,1,.17.09l.07-.16Z"/><path class="cls-12" d="M33.32,26l-.25,0-.06.16.3,0a1.84,1.84,0,0,1,.41.06l.05-.16A1.9,1.9,0,0,0,33.32,26Z"/><path class="cls-6" d="M32.92,26l-.15.08a.34.34,0,0,0,.24.13l.06-.16A.33.33,0,0,1,32.92,26Z"/><path class="cls-8" d="M32.91,26c0-.05,0-.16.08-.22l-.15-.08c-.05.07-.16.27-.07.4l.15-.09Z"/><path class="cls-35" d="M33.15,28.07c-.18.05-.45.09-.64.13a.37.37,0,0,0-.23.17l.16.07a.15.15,0,0,1,.11-.08c.18,0,.45-.07.65-.13a2.53,2.53,0,0,1,.53-.15.73.73,0,0,1,.33.08l.11-.12a.83.83,0,0,0-.44-.13A2.26,2.26,0,0,0,33.15,28.07Z"/><path class="cls-8" d="M34.34,28.32a.34.34,0,0,0-.17-.29l-.11.13c.1.06.11.12.11.16a2.45,2.45,0,0,1,0,.27h.16A1.67,1.67,0,0,0,34.34,28.32Z"/><path class="cls-19" d="M34.15,28.59A1.44,1.44,0,0,1,34,29l.13.11a1.22,1.22,0,0,0,.16-.51Z"/><path class="cls-6" d="M34,29.07l0,.16a.29.29,0,0,0,.15-.14L34,29S34,29.07,34,29.07Z"/><path class="cls-12" d="M33.91,29.08a.23.23,0,0,1-.11,0l-.07.15a.37.37,0,0,0,.18.05l.1,0L34,29.07Z"/><path class="cls-19" d="M33.55,28.83a.65.65,0,0,0-.43-.18v.17a.49.49,0,0,1,.3.12,1,1,0,0,0,.32.27l.06-.16A.76.76,0,0,1,33.55,28.83Z"/><path class="cls-12" d="M32.71,28.66l0,.17a3.12,3.12,0,0,1,.44,0v-.17C33,28.64,32.72,28.66,32.71,28.66Z"/><path class="cls-19" d="M32.59,28.66h-.05l0,.17h.16l0-.17Z"/><path class="cls-6" d="M32.46,28.61l-.1.13a.44.44,0,0,0,.16.09l0-.17A.25.25,0,0,1,32.46,28.61Z"/><path class="cls-8" d="M32.4,28.54a.19.19,0,0,1,0-.1l-.15-.07a.31.31,0,0,0-.06.2c0,.05.06.12.13.18l.1-.14Z"/><path class="cls-35" d="M29.66,27.72a.34.34,0,0,0-.09.17l.17,0s0-.07,0-.08a.92.92,0,0,1,.92,0l.06-.16A1.05,1.05,0,0,0,29.66,27.72Z"/><path class="cls-8" d="M30.75,27.71l-.05.17.1.06a.22.22,0,0,1,0,.22l.17,0a.37.37,0,0,0-.07-.38A.83.83,0,0,0,30.75,27.71Z"/><path class="cls-12" d="M30.75,28.3a1.15,1.15,0,0,1-.64,0l-.05.16a1.14,1.14,0,0,0,.79,0,.43.43,0,0,0,.14-.24l-.17,0A.29.29,0,0,1,30.75,28.3Z"/><path class="cls-6" d="M29.77,28.11l-.15.08a.93.93,0,0,0,.45.27l0-.16A1.08,1.08,0,0,1,29.77,28.11Z"/><path class="cls-8" d="M29.76,28.09a.25.25,0,0,1,0-.17l-.16,0a.4.4,0,0,0,0,.3h0l.15-.08Z"/><path class="cls-35" d="M28.87,24.1a6.77,6.77,0,0,0-2,1.37l.14.1a7.5,7.5,0,0,1,1.87-1.3,6.94,6.94,0,0,0,1.62.31l.05-.17A6.1,6.1,0,0,1,28.87,24.1Z"/><path class="cls-8" d="M30.52,24.41l0,.17a.36.36,0,0,1,.39.24l.16-.05A.5.5,0,0,0,30.52,24.41Z"/><path class="cls-6" d="M30.87,24.82a.7.7,0,0,1,0,.38l.16.05a.91.91,0,0,0,0-.49Z"/><path class="cls-12" d="M30.87,25.2a.42.42,0,0,1-.06.15.41.41,0,0,1-.37.14c-.29,0-.69-.12-1-.12a.9.9,0,0,0-.37.07l.08.15a.63.63,0,0,1,.29-.05c.32,0,.71.12,1,.12a.58.58,0,0,0,.5-.21.69.69,0,0,0,.1-.21Z"/><path class="cls-19" d="M28.3,26.4l-.05,0,.13.13,0,0c.09-.07.5-.82.72-.94L29,25.44C28.78,25.58,28.42,26.26,28.3,26.4Z"/><path class="cls-35" d="M27.32,21.89h-.07c-.18,0-.62.06-1,.11l-.57.08.14.15.46-.07c.38-.05.79-.1.95-.1h0Z"/><path class="cls-8" d="M27.31,21.89l0,.17a2.4,2.4,0,0,1,.39.42l.13-.11A2.33,2.33,0,0,0,27.31,21.89Z"/><path class="cls-63" d="M27.92,22.87s0,.1,0,.12l.17.05c0-.06,0-.13,0-.2a2.06,2.06,0,0,0-.32-.48l-.12.12A2.32,2.32,0,0,1,27.92,22.87Z"/><path class="cls-19" d="M28.1,23l-.17,0c0,.05,0,.07-.08.12a13.93,13.93,0,0,0-1.67,1.28l-.65.59v0l-.13.31a4.91,4.91,0,0,0,.9-.75,15.88,15.88,0,0,1,1.64-1.26A.33.33,0,0,0,28.1,23Z"/><path class="cls-25" d="M25.5,23.57a8,8,0,0,0-.12,1.69h0l.13-.3c0-.3.08-.87.16-1.51Z"/><path class="cls-8" d="M25.85,22.23h0l-.15-.15s-.11.73-.2,1.49l.19-.12C25.73,23.06,25.79,22.64,25.85,22.23Z"/><path class="cls-35" d="M23.55,21.47a1.12,1.12,0,0,0-.75.18l.14.09a1.44,1.44,0,0,1,.61-.1,2.38,2.38,0,0,1,.39,0l.07-.15A1.62,1.62,0,0,0,23.55,21.47Z"/><path class="cls-8" d="M24,21.51l-.07.16a.52.52,0,0,1,.26.18l.17-.06A.78.78,0,0,0,24,21.51Z"/><path class="cls-62" d="M24.19,21.84c-.06.47-.14,1.07-.22,1.6l.16.09c.12-.82.24-1.74.24-1.74Z"/><path class="cls-19" d="M24,23.44a9.75,9.75,0,0,1-.22,1.23l.15.08a7.7,7.7,0,0,0,.23-1.23Z"/><path class="cls-62" d="M23.61,24.77v.17a.34.34,0,0,0,.29-.2l-.15-.07A.17.17,0,0,1,23.61,24.77Z"/><path class="cls-19" d="M23.57,24.76l-.23-.15-.08.14.21.14a.19.19,0,0,0,.14.05v-.17Z"/><path class="cls-62" d="M21.12,23.45h0l-.13.12.09.05a23.6,23.6,0,0,1,2.21,1.15l.08-.15A22.89,22.89,0,0,0,21.12,23.45Z"/><path class="cls-8" d="M20.91,23.05A.31.31,0,0,1,21,23l-.13-.11a.52.52,0,0,0,.14.72l.12-.12A.37.37,0,0,1,20.91,23.05Z"/><path class="cls-35" d="M21.85,22.75c-.33,0-.56-.06-.68-.06a.41.41,0,0,0-.34.15L21,23a.26.26,0,0,1,.21-.09,6.54,6.54,0,0,0,.68.06,1,1,0,0,0,.52-.1l-.08-.14A1,1,0,0,1,21.85,22.75Z"/><path class="cls-8" d="M22.28,22.68l.09.14A2.61,2.61,0,0,0,23,21.74l-.15-.09A2.52,2.52,0,0,1,22.28,22.68Z"/><path class="cls-35" d="M20.42,24.67a1.46,1.46,0,0,0-.59-.17.25.25,0,0,0-.15,0l.06.16s0,0,.09,0a1.24,1.24,0,0,1,.51.15,13.12,13.12,0,0,1,1.21.71l.11-.13C21.19,25.09,20.51,24.71,20.42,24.67Z"/><path class="cls-8" d="M21.65,25.39l-.1.14a1.8,1.8,0,0,1,.39.3.37.37,0,0,1,0,.31l.15.09a.58.58,0,0,0,0-.5A2.51,2.51,0,0,0,21.65,25.39Z"/><path class="cls-19" d="M21.94,26.14s-.07.18-.19.18a6.21,6.21,0,0,1-.85-.18,1.29,1.29,0,0,0-.55,0v.18a1,1,0,0,1,.51,0,6.45,6.45,0,0,0,.89.19.38.38,0,0,0,.34-.27Z"/><path class="cls-12" d="M19.37,26.54l0,.18a4.32,4.32,0,0,1,1-.42v-.17A3.84,3.84,0,0,0,19.37,26.54Z"/><path class="cls-12" d="M18.59,26.82l0,.17a3.36,3.36,0,0,0,.79-.27l0-.18A2.76,2.76,0,0,1,18.59,26.82Z"/><path class="cls-62" d="M18.59,26.82a.52.52,0,0,1-.22,0l-.06.16a.71.71,0,0,0,.31,0Z"/><path class="cls-12" d="M17.12,26.14l-.14.09a1.87,1.87,0,0,0,1,.65l.06-.16A1.74,1.74,0,0,1,17.12,26.14Z"/><path class="cls-62" d="M17.11,25.74,17,25.65a.63.63,0,0,0,0,.59l.14-.1A.43.43,0,0,1,17.11,25.74Z"/><path class="cls-35" d="M18.83,25.36a1.92,1.92,0,0,1-.88-.24.47.47,0,0,0-.25-.07.92.92,0,0,0-.74.61l.15.08a.75.75,0,0,1,.59-.52.35.35,0,0,1,.17,0,2,2,0,0,0,1,.27.77.77,0,0,0,.39-.09l-.08-.15A.51.51,0,0,1,18.83,25.36Z"/><path class="cls-8" d="M19.14,25.3l.08.14c.22-.13.42-.67.52-.75l0-.17C19.5,24.59,19.37,25.13,19.14,25.3Z"/><rect class="cls-104" x="47" y="47" width="1" height="1"/><rect class="cls-104" width="1" height="1"/></svg>