<svg xmlns="http://www.w3.org/2000/svg" version="1.0" preserveAspectRatio="xMidYMid meet" viewBox="101.7 7.39 570.1 572.91">

<g transform="translate(0.000000,600.000000) scale(0.100000,-0.100000)" fill="#000000" stroke="none">
<path d="M3625 5924 c-111 -17 -283 -50 -420 -80 -834 -185 -1267 -464 -1674 -1079 -95 -144 -181 -302 -212 -392 -21 -61 -25 -146 -9 -187 20 -54 122 -84 193 -57 14 5 141 12 283 16 143 3 1119 30 2169 60 1051 30 1962 55 2026 55 138 0 184 7 169 25 -8 9 -6 14 5 18 9 4 19 -2 25 -13 7 -13 21 -20 41 -20 23 0 41 13 84 58 69 71 74 86 43 120 -148 161 -589 645 -677 742 -62 69 -117 125 -121 125 -4 0 -23 20 -41 44 -84 109 -580 355 -919 456 -297 88 -415 106 -705 110 -126 2 -243 1 -260 -1z m495 -108 c316 -43 633 -143 955 -304 104 -51 281 -150 304 -169 10 -8 -64 -143 -78 -143 -9 0 -209 -20 -446 -45 l-430 -46 -435 200 -435 200 -3 150 -3 150 33 5 c18 3 44 7 58 9 65 10 385 5 480 -7z m-670 -180 l0 -155 -332 -235 -333 -236 -265 6 c-146 4 -355 9 -464 13 l-199 6 85 85 c265 266 558 428 1008 556 145 42 443 111 483 113 15 1 17 -13 17 -153z m50 -176 c0 -5 -2 -10 -4 -10 -3 0 -8 5 -11 10 -3 6 -1 10 4 10 6 0 11 -4 11 -10z m448 -241 c229 -106 418 -193 420 -194 5 -4 -80 -700 -86 -706 -8 -7 -1291 -43 -1298 -36 -8 7 -113 661 -108 667 11 11 640 458 647 459 4 1 195 -85 425 -190z m1693 -144 c84 -93 251 -276 369 -405 119 -129 220 -241 224 -248 11 -18 -21 -52 -48 -51 -14 0 -126 115 -351 360 -181 197 -349 381 -373 408 l-43 49 21 42 c18 35 24 40 34 29 7 -8 82 -90 167 -184z m61 -343 l336 -367 -226 -7 c-1053 -31 -1414 -40 -1418 -36 -6 7 72 678 81 686 8 8 866 100 880 94 6 -2 161 -169 347 -370z m-3602 194 c168 -3 388 -9 490 -12 l186 -7 48 -296 c27 -163 50 -305 53 -317 4 -20 1 -20 -449 -32 -249 -7 -555 -15 -681 -19 l-227 -6 22 -24 21 -23 -47 0 c-41 0 -47 2 -42 18 5 15 1 17 -36 14 l-41 -4 6 62 c7 76 79 228 187 394 94 143 193 277 200 267 3 -5 142 -11 310 -15z"/>
<path d="M3865 3844 c-1408 -45 -2595 -84 -2638 -86 l-79 -3 -49 -118 -49 -119 -16 -284 -17 -284 38 -285 39 -285 80 -99 81 -99 1390 -5 c1178 -4 2680 -21 3577 -41 l226 -5 71 55 c39 31 71 59 71 63 0 4 29 146 64 315 l64 308 -69 467 c-38 256 -69 467 -69 468 0 4 -151 123 -153 122 -1 -1 -1154 -39 -2562 -85z m2345 -29 c0 -11 -502 -1160 -511 -1170 -6 -6 -188 5 -497 28 -268 21 -502 38 -519 39 -34 2 -43 12 -19 21 11 4 4 25 -29 89 -23 46 -126 248 -229 450 l-187 367 -45 -21 c-24 -12 -43 -25 -42 -28 2 -3 103 -202 226 -443 l223 -438 -95 -182 c-53 -100 -106 -200 -119 -222 l-22 -40 -280 4 c-154 2 -545 7 -869 10 l-589 6 -108 380 c-60 209 -107 386 -104 392 3 9 453 631 470 651 2 2 173 9 382 15 264 9 381 9 389 2 6 -6 125 -32 264 -58 286 -55 256 -59 296 37 l22 51 253 8 c140 4 569 18 954 31 385 13 719 24 743 25 23 0 42 -1 42 -4z m236 -26 l41 -31 62 -426 c34 -235 63 -436 64 -447 0 -11 -26 -148 -58 -305 l-59 -286 -40 -30 -41 -30 -262 4 -261 5 -65 143 -65 143 281 645 280 646 42 0 c31 0 52 -8 81 -31z m-2341 -48 c-6 -6 -25 -6 -45 -1 l-35 8 45 1 c27 1 40 -3 35 -8z m-1372 -43 c-6 -7 -95 -130 -198 -273 -103 -143 -196 -268 -205 -279 -17 -17 -31 -13 -426 129 -225 81 -414 153 -420 159 -9 10 -64 200 -64 224 0 4 192 14 428 22 235 7 513 16 617 20 105 4 210 8 234 8 33 2 41 -1 34 -10z m-1387 -160 l31 -123 -116 -329 -116 -329 -14 94 c-13 82 -12 128 2 369 15 253 19 281 43 340 41 102 39 100 92 100 l47 0 31 -122z m524 -357 c226 -82 415 -153 420 -157 6 -8 210 -721 210 -737 0 -4 -269 -7 -599 -7 l-599 0 -57 71 c-54 66 -58 75 -63 135 -5 61 0 75 133 454 76 214 139 390 140 390 1 0 188 -67 415 -149z m3301 -606 c245 -19 453 -35 461 -35 10 0 38 -51 82 -147 36 -80 65 -147 64 -148 -2 -1 -221 1 -488 6 -267 4 -563 8 -658 8 l-173 1 87 168 c48 92 91 172 96 178 5 7 25 10 46 8 20 -3 238 -20 483 -39z"/>
<path d="M1393 1809 c-15 -30 -29 -57 -31 -61 -2 -5 8 -8 22 -8 33 0 33 -7 -4 -45 l-31 -32 127 -174 c192 -263 206 -281 376 -465 153 -165 164 -175 380 -329 123 -88 237 -170 254 -182 l32 -24 31 40 32 40 -39 28 c-22 15 -40 35 -39 43 0 8 -61 111 -136 228 -76 118 -142 222 -147 233 -9 16 20 72 172 336 l182 316 374 -6 c207 -4 463 -7 569 -7 185 0 194 -1 188 -19 -5 -16 12 -25 122 -65 71 -25 133 -46 139 -46 7 0 15 7 18 16 3 8 10 13 15 9 6 -3 8 -11 5 -18 -2 -7 135 -183 306 -391 171 -207 310 -384 308 -391 -2 -7 -79 -126 -173 -264 -120 -178 -177 -252 -192 -256 -13 -3 -35 -8 -50 -11 -17 -3 -23 -8 -15 -13 8 -5 0 -18 -25 -42 -23 -22 -34 -28 -29 -16 3 11 9 29 11 40 l6 22 -360 0 c-197 0 -355 -3 -350 -6 5 -3 -7 -20 -26 -39 -40 -39 -44 -36 -15 13 l21 35 -63 20 c-35 12 -220 71 -412 132 l-348 112 -34 -33 c-19 -18 -34 -36 -34 -40 0 -7 288 -105 665 -225 l210 -67 390 0 390 0 146 31 c271 57 350 82 559 172 417 179 546 244 654 327 205 156 305 246 391 349 48 57 91 104 96 104 5 0 9 5 9 10 0 6 46 70 101 143 102 132 209 323 209 372 0 12 -17 42 -39 66 l-39 44 -343 7 c-189 4 -1109 12 -2044 18 -935 5 -1872 13 -2082 17 l-381 6 -29 -54z m4833 -47 c-18 -16 -18 -16 -6 6 6 13 14 21 18 18 3 -4 -2 -14 -12 -24z m-3778 -18 c7 -5 -313 -553 -323 -554 -5 -1 -103 36 -217 80 l-208 82 -118 162 c-65 88 -122 166 -126 173 -4 7 0 26 9 43 l16 31 482 -7 c265 -4 483 -8 485 -10z m1582 -13 c0 -25 -28 -31 -73 -15 -26 9 -47 18 -47 20 0 2 27 4 60 4 33 0 60 -4 60 -9z m1815 -6 l40 -6 28 -222 c16 -129 33 -224 39 -226 6 -2 -270 -88 -613 -192 -343 -103 -627 -185 -630 -181 -80 93 -609 744 -609 750 0 5 15 26 34 48 l33 39 819 -3 c451 -1 837 -4 859 -7z m457 -17 c-27 -28 -34 -30 -42 -18 -7 11 -2 19 23 32 49 26 55 21 19 -14z m-68 -1 c8 -13 0 -37 -36 -107 l-46 -90 31 0 31 0 -35 -36 -34 -35 -5 26 c-5 25 -7 23 -54 -40 -26 -36 -50 -65 -52 -63 -3 4 -44 315 -44 340 0 15 14 18 108 20 132 4 123 5 136 -15z m-4209 -591 l90 -36 95 -151 c52 -83 97 -155 98 -160 2 -6 -49 28 -115 75 -108 78 -183 149 -323 309 l-33 38 49 -20 c27 -10 90 -35 139 -55z m3785 -33 l-31 -38 26 -3 25 -3 -27 -36 -28 -37 -5 33 -5 33 -95 -78 c-53 -44 -137 -110 -188 -149 -85 -64 -90 -70 -66 -75 l25 -5 -35 -34 -36 -35 0 32 c0 18 -2 32 -4 32 -2 0 -122 -53 -267 -118 -145 -65 -306 -136 -358 -158 -61 -25 -86 -40 -72 -42 20 -3 20 -4 -7 -38 -34 -43 -42 -43 -35 2 5 32 4 36 -13 30 -45 -14 -188 -45 -191 -42 -2 2 62 100 142 217 l146 214 552 167 c304 92 558 167 565 167 8 1 0 -15 -18 -36z"/>
</g>
</svg>