<svg width="800" height="600" xmlns="http://www.w3.org/2000/svg">
 <g id="Layer_1">
  <title>Layer 1</title>
  <path stroke="#C6A763" stroke-width="10" id="svg_3" d="m156.18426,127.7192c45.92104,-70.21928 94.07893,-94.47366 193.28943,-112.98243c99.2105,-18.50877 197.89452,50.52643 197.89461,51.579c0.00009,1.05257 84.2106,92.6315 84.2106,92.6315c1.66667,-1.66667 -9.47368,10.52631 -9.47368,9.47368c0,-1.05263 -470.52622,13.68421 -470.5263,12.63164c0.00009,1.05257 -41.31569,16.88589 4.60535,-53.33339z" opacity="NaN" fill="none"/>
  <path id="svg_4" d="m118.33327,229.16657l523.3333,-16.66661l11.66666,9.16667l13.33333,90.83332l-12.5,60.83332l-10.83333,8.33333l-341.66662,-5l-173.33331,0.83333l-14.16666,-17.5l-7.5,-54.99999l3.33333,-55.83333l8.33328,-20.00006z" opacity="NaN" stroke-width="10" stroke="#C6A763" fill="none"/>
  <path id="svg_5" d="m144.99993,419.16655c0,0 479.99994,4.16667 479.16664,3.33339c0.8333,0.83328 6.66663,7.49994 5.83333,6.66667c0.8333,0.83328 -10.83337,24.16661 -11.66666,23.33333c0.8333,0.83328 -36.6667,47.49994 -37.49999,46.66666c0.83329,0.83328 -39.1667,32.49994 -39.99999,31.66666c0.83329,0.83328 -74.1667,34.16661 -74.99999,33.33333c0.83329,0.83328 -48.33337,11.66661 -49.16666,10.83333c0.83329,0.83328 -74.1667,0.83328 -74.99999,0c0.83329,0.83328 -85.00003,-26.66672 -85.83332,-27.5c0.83329,0.83328 -50.83337,-35.83338 -51.66666,-36.66666c0.83329,0.83328 -29.16671,-31.66672 -30.83338,-33.33338c-1.66667,-1.66667 -34.16666,-46.66666 -34.99995,-47.49994c0.83329,0.83328 6.66662,-10.83339 6.66662,-10.83339z" opacity="NaN" stroke-width="10" stroke="#C6A763" fill="none"/>
  <line id="svg_6" y2="104.16659" x2="283.33325" y1="101.66659" x1="179.16659" stroke-width="10" stroke="#C6A763" fill="none"/>
  <line id="svg_7" y2="53.33326" x2="349.9999" y1="17.49993" x1="349.9999" stroke-width="10" stroke="#C6A763" fill="none"/>
  <line id="svg_8" y2="54.99993" x2="349.16657" y1="103.33326" x1="280.83325" stroke-width="10" stroke="#C6A763" fill="none"/>
  <line id="svg_9" y2="84.16659" x2="536.66655" y1="94.16659" x1="441.66656" stroke-width="10" stroke="#C6A763" fill="none"/>
  <line id="svg_10" y2="94.99992" x2="443.33323" y1="52.49993" x1="350.83324" stroke-width="10" stroke="#C6A763" fill="none"/>
  <line id="svg_11" y2="67.49993" x2="543.33321" y1="85.83326" x1="534.16655" stroke-width="10" stroke="#C6A763" fill="none"/>
  <line id="svg_12" y2="93.33326" x2="442.49989" y1="172.49991" x1="433.33323" stroke-width="10" stroke="#C6A763" fill="none"/>
  <line id="svg_13" y2="103.33326" x2="281.66658" y1="174.16658" x1="293.33325" stroke-width="10" stroke="#C6A763" fill="none"/>
  <line id="svg_14" y2="169.16658" x2="615.8332" y1="84.16659" x1="537.49988" stroke-width="10" stroke="#C6A763" fill="none"/>
  <line id="svg_15" y2="259.9999" x2="143.33326" y1="230.83324" x1="135.83327" stroke-width="10" stroke="#C6A763" fill="none"/>
  <line id="svg_16" y2="257.4999" x2="143.33326" y1="344.99989" x1="112.49993" stroke-width="10" stroke="#C6A763" fill="none"/>
  <line id="svg_17" y2="260.83324" x2="143.33326" y1="293.33323" x1="233.33325" stroke-width="10" stroke="#C6A763" fill="none"/>
  <line id="svg_18" y2="292.4999" x2="234.16659" y1="224.99991" x1="283.33325" stroke-width="10" stroke="#C6A763" fill="none"/>
  <line id="svg_19" y2="233.33324" x2="416.66656" y1="223.33324" x1="364.16657" stroke-width="10" stroke="#C6A763" fill="none"/>
  <line id="svg_20" y2="238.33324" x2="417.4999" y1="328.33323" x1="463.33322" stroke-width="10" stroke="#C6A763" fill="none"/>
  <line id="svg_21" y2="234.16657" x2="412.4999" y1="221.66657" x1="417.4999" stroke-width="10" stroke="#C6A763" fill="none"/>
  <line id="svg_22" y2="379.16655" x2="437.49989" y1="328.33323" x1="464.16656" stroke-width="10" stroke="#C6A763" fill="none"/>
  <line id="svg_23" y2="375.83322" x2="256.66658" y1="293.33323" x1="233.33325" stroke-width="10" stroke="#C6A763" fill="none"/>
  <line id="svg_24" y2="341.66656" x2="570.83321" y1="333.33323" x1="464.99989" stroke-width="10" stroke="#C6A763" fill="none"/>
  <line id="svg_25" y2="344.99989" x2="571.66654" y1="216.66658" x1="627.49987" stroke-width="10" stroke="#C6A763" fill="none"/>
  <line id="svg_26" y2="341.66656" x2="568.33321" y1="382.49989" x1="586.66654" stroke-width="10" stroke="#C6A763" fill="none"/>
  <line id="svg_27" y2="488.33321" x2="215.83326" y1="469.16654" x1="167.49993" stroke-width="10" stroke="#C6A763" fill="none"/>
  <line id="svg_28" y2="488.33321" x2="214.99992" y1="421.66655" x1="253.33325" stroke-width="10" stroke="#C6A763" fill="none"/>
  <line id="svg_29" y2="485.83321" x2="213.33326" y1="538.3332" x1="246.66658" stroke-width="10" stroke="#C6A763" fill="none"/>
  <line id="svg_30" y2="434.99988" x2="399.16657" y1="424.99988" x1="371.66657" stroke-width="10" stroke="#C6A763" fill="none"/>
  <line id="svg_31" y2="437.49988" x2="400.83323" y1="420.83322" x1="414.9999" stroke-width="10" stroke="#C6A763" fill="none"/>
  <line id="svg_32" y2="435.83321" x2="403.33323" y1="515.8332" x1="469.16656" stroke-width="10" stroke="#C6A763" fill="none"/>
  <line id="svg_33" y2="472.49988" x2="599.16654" y1="425.83322" x1="593.33321" stroke-width="10" stroke="#C6A763" fill="none"/>
  <line id="svg_34" y2="476.66654" x2="602.49987" y1="517.49987" x1="466.66656" stroke-width="10" stroke="#C6A763" fill="none"/>
  <line id="svg_35" y2="516.66654" x2="468.33322" y1="571.66653" x1="430.83323" stroke-width="10" stroke="#C6A763" fill="none"/>
 </g>
</svg>