<svg width="123" height="34" viewBox="0 0 123 34" fill="none" xmlns="http://www.w3.org/2000/svg">
<rect width="123" height="34" fill="#1E1E1E"/>
<rect width="123" height="34" fill="#010101"/>
<path d="M36.292 13.708H32.6973V24H29.8496V13.708H26.2725V11.3965H36.292V13.708ZM42.2334 17.5049C41.8994 17.3232 41.5098 17.2324 41.0645 17.2324C40.4609 17.2324 39.9893 17.4551 39.6494 17.9004C39.3096 18.3398 39.1396 18.9404 39.1396 19.7021V24H36.3623V15H39.1396V16.6699H39.1748C39.6143 15.4512 40.4053 14.8418 41.5479 14.8418C41.8408 14.8418 42.0693 14.877 42.2334 14.9473V17.5049ZM51.0225 24H48.3945V22.708H48.3594C47.7559 23.7158 46.8623 24.2197 45.6787 24.2197C44.8057 24.2197 44.1172 23.9736 43.6133 23.4814C43.1152 22.9834 42.8662 22.3213 42.8662 21.4951C42.8662 19.749 43.9004 18.7412 45.9688 18.4717L48.4121 18.1465C48.4121 17.1621 47.8789 16.6699 46.8125 16.6699C45.7402 16.6699 44.7207 16.9893 43.7539 17.6279V15.5361C44.1406 15.3369 44.668 15.1611 45.3359 15.0088C46.0098 14.8564 46.6221 14.7803 47.1729 14.7803C49.7393 14.7803 51.0225 16.0605 51.0225 18.6211V24ZM48.4121 20.3438V19.7373L46.7773 19.9482C45.875 20.0654 45.4238 20.4727 45.4238 21.1699C45.4238 21.4863 45.5322 21.7471 45.749 21.9521C45.9717 22.1514 46.2705 22.251 46.6455 22.251C47.167 22.251 47.5918 22.0723 47.9199 21.7148C48.248 21.3516 48.4121 20.8945 48.4121 20.3438ZM61.9121 24H59.1436V18.999C59.1436 17.6045 58.6455 16.9072 57.6494 16.9072C57.1689 16.9072 56.7734 17.0918 56.4629 17.4609C56.1523 17.8301 55.9971 18.2988 55.9971 18.8672V24H53.2197V15H55.9971V16.4238H56.0322C56.6943 15.3281 57.6582 14.7803 58.9238 14.7803C60.916 14.7803 61.9121 16.0166 61.9121 18.4893V24ZM72.9248 24H70.1475V22.7607H70.1123C69.4795 23.7334 68.5508 24.2197 67.3262 24.2197C66.2012 24.2197 65.2959 23.8242 64.6104 23.0332C63.9248 22.2363 63.582 21.126 63.582 19.7021C63.582 18.2139 63.96 17.0215 64.7158 16.125C65.4717 15.2285 66.4619 14.7803 67.6865 14.7803C68.8467 14.7803 69.6553 15.1963 70.1123 16.0283H70.1475V10.6758H72.9248V24ZM70.2002 19.623V18.9463C70.2002 18.3604 70.0303 17.874 69.6904 17.4873C69.3506 17.1006 68.9082 16.9072 68.3633 16.9072C67.748 16.9072 67.2676 17.1504 66.9219 17.6367C66.5762 18.1172 66.4033 18.7793 66.4033 19.623C66.4033 20.4141 66.5703 21.0234 66.9043 21.4512C67.2383 21.8789 67.7012 22.0928 68.293 22.0928C68.8555 22.0928 69.3125 21.8672 69.6641 21.416C70.0215 20.9648 70.2002 20.3672 70.2002 19.623ZM82.751 24H80.123V22.708H80.0879C79.4844 23.7158 78.5908 24.2197 77.4072 24.2197C76.5342 24.2197 75.8457 23.9736 75.3418 23.4814C74.8438 22.9834 74.5947 22.3213 74.5947 21.4951C74.5947 19.749 75.6289 18.7412 77.6973 18.4717L80.1406 18.1465C80.1406 17.1621 79.6074 16.6699 78.541 16.6699C77.4688 16.6699 76.4492 16.9893 75.4824 17.6279V15.5361C75.8691 15.3369 76.3965 15.1611 77.0645 15.0088C77.7383 14.8564 78.3506 14.7803 78.9014 14.7803C81.4678 14.7803 82.751 16.0605 82.751 18.6211V24ZM80.1406 20.3438V19.7373L78.5059 19.9482C77.6035 20.0654 77.1523 20.4727 77.1523 21.1699C77.1523 21.4863 77.2607 21.7471 77.4775 21.9521C77.7002 22.1514 77.999 22.251 78.374 22.251C78.8955 22.251 79.3203 22.0723 79.6484 21.7148C79.9766 21.3516 80.1406 20.8945 80.1406 20.3438ZM90.8193 17.5049C90.4854 17.3232 90.0957 17.2324 89.6504 17.2324C89.0469 17.2324 88.5752 17.4551 88.2354 17.9004C87.8955 18.3398 87.7256 18.9404 87.7256 19.7021V24H84.9482V15H87.7256V16.6699H87.7607C88.2002 15.4512 88.9912 14.8418 90.1338 14.8418C90.4268 14.8418 90.6553 14.877 90.8193 14.9473V17.5049ZM100.136 20.291H94.2646C94.3584 21.5977 95.1816 22.251 96.7344 22.251C97.7246 22.251 98.5947 22.0166 99.3447 21.5479V23.5518C98.5127 23.9971 97.4316 24.2197 96.1016 24.2197C94.6484 24.2197 93.5205 23.8184 92.7178 23.0156C91.915 22.207 91.5137 21.082 91.5137 19.6406C91.5137 18.1465 91.9473 16.9629 92.8145 16.0898C93.6816 15.2168 94.748 14.7803 96.0137 14.7803C97.3262 14.7803 98.3398 15.1699 99.0547 15.9492C99.7754 16.7285 100.136 17.7861 100.136 19.1221V20.291ZM97.5605 18.5859C97.5605 17.2969 97.0391 16.6523 95.9961 16.6523C95.5508 16.6523 95.1641 16.8369 94.8359 17.2061C94.5137 17.5752 94.3174 18.0352 94.2471 18.5859H97.5605ZM110.595 24H107.817V22.7607H107.782C107.149 23.7334 106.221 24.2197 104.996 24.2197C103.871 24.2197 102.966 23.8242 102.28 23.0332C101.595 22.2363 101.252 21.126 101.252 19.7021C101.252 18.2139 101.63 17.0215 102.386 16.125C103.142 15.2285 104.132 14.7803 105.356 14.7803C106.517 14.7803 107.325 15.1963 107.782 16.0283H107.817V10.6758H110.595V24ZM107.87 19.623V18.9463C107.87 18.3604 107.7 17.874 107.36 17.4873C107.021 17.1006 106.578 16.9072 106.033 16.9072C105.418 16.9072 104.938 17.1504 104.592 17.6367C104.246 18.1172 104.073 18.7793 104.073 19.623C104.073 20.4141 104.24 21.0234 104.574 21.4512C104.908 21.8789 105.371 22.0928 105.963 22.0928C106.525 22.0928 106.982 21.8672 107.334 21.416C107.691 20.9648 107.87 20.3672 107.87 19.623ZM112.344 23.7627V21.5127C112.801 21.7881 113.255 21.9932 113.706 22.1279C114.163 22.2627 114.594 22.3301 114.998 22.3301C115.49 22.3301 115.877 22.2627 116.158 22.1279C116.445 21.9932 116.589 21.7881 116.589 21.5127C116.589 21.3369 116.524 21.1904 116.396 21.0732C116.267 20.9561 116.1 20.8535 115.895 20.7656C115.695 20.6777 115.476 20.5986 115.235 20.5283C114.995 20.458 114.764 20.3789 114.541 20.291C114.184 20.1562 113.867 20.0127 113.592 19.8604C113.322 19.7021 113.094 19.5205 112.906 19.3154C112.725 19.1104 112.584 18.873 112.484 18.6035C112.391 18.334 112.344 18.0146 112.344 17.6455C112.344 17.1416 112.452 16.708 112.669 16.3447C112.892 15.9814 113.185 15.6855 113.548 15.457C113.917 15.2227 114.336 15.0527 114.805 14.9473C115.279 14.8359 115.771 14.7803 116.281 14.7803C116.68 14.7803 117.084 14.8125 117.494 14.877C117.904 14.9355 118.309 15.0234 118.707 15.1406V17.2852C118.355 17.0801 117.978 16.9277 117.573 16.8281C117.175 16.7227 116.782 16.6699 116.396 16.6699C116.214 16.6699 116.041 16.6875 115.877 16.7227C115.719 16.752 115.578 16.7988 115.455 16.8633C115.332 16.9219 115.235 17.001 115.165 17.1006C115.095 17.1943 115.06 17.3027 115.06 17.4258C115.06 17.5898 115.112 17.7305 115.218 17.8477C115.323 17.9648 115.461 18.0674 115.631 18.1553C115.801 18.2373 115.988 18.3135 116.193 18.3838C116.404 18.4482 116.612 18.5156 116.817 18.5859C117.187 18.7148 117.521 18.8555 117.819 19.0078C118.118 19.1602 118.373 19.3389 118.584 19.5439C118.801 19.749 118.965 19.9893 119.076 20.2646C119.193 20.54 119.252 20.8682 119.252 21.249C119.252 21.7822 119.135 22.2393 118.9 22.6201C118.672 22.9951 118.364 23.3027 117.978 23.543C117.597 23.7773 117.154 23.9473 116.65 24.0527C116.152 24.1641 115.634 24.2197 115.095 24.2197C114.104 24.2197 113.188 24.0674 112.344 23.7627Z" fill="#C6A763"/>
<path d="M9.91593 10.4084C11.2881 8.13613 11.9742 7 13 7C14.0258 7 14.7119 8.13612 16.084 10.4084L16.439 10.9962C16.829 11.6419 17.0239 11.9648 17.328 12.1778C17.632 12.3908 18.0105 12.4699 18.7678 12.628L19.4572 12.772C22.1218 13.3286 23.4542 13.6068 23.7712 14.5477C24.0881 15.4886 23.1799 16.4691 21.3632 18.4299L20.8933 18.9372C20.3771 19.4944 20.1189 19.773 20.0028 20.1177C19.8868 20.4624 19.9258 20.8341 20.0038 21.5776L20.0748 22.2544C20.3494 24.8706 20.4868 26.1787 19.657 26.7602C18.827 27.3417 17.5796 26.8115 15.0847 25.7512L14.4392 25.4768C13.7303 25.1755 13.3758 25.0248 13 25.0248C12.6242 25.0248 12.2697 25.1755 11.5608 25.4768L10.9153 25.7512C8.42041 26.8115 7.17295 27.3417 6.34309 26.7602C5.51322 26.1787 5.65054 24.8706 5.92519 22.2544L5.99624 21.5776C6.07429 20.8341 6.11331 20.4624 5.99719 20.1177C5.88108 19.773 5.62297 19.4944 5.10675 18.9372L4.63678 18.4299C2.82019 16.4691 1.9119 15.4886 2.22888 14.5477C2.54586 13.6068 3.87819 13.3286 6.54284 12.772L7.23222 12.628C7.98943 12.4699 8.36803 12.3908 8.67203 12.1778C8.97602 11.9648 9.171 11.6419 9.56093 10.9962L9.91593 10.4084Z" fill="#C6A763"/>
</svg>
